<svg width="150" height="18" viewBox="0 0 150 18" fill="none" xmlns="http://www.w3.org/2000/svg">
<path d="M16.2009 4.75903L24.1804 12.6378C24.1804 12.6378 27.5828 15.9131 30.225 12.9187" stroke="white" stroke-width="0.996895" stroke-linecap="round" stroke-linejoin="round"/>
<path d="M0.978271 9.00008C0.978274 6.87839 1.82705 4.84361 3.33787 3.34335C4.84869 1.84309 6.8978 1.00026 9.03442 1.00025C9.6081 0.999395 10.1806 1.05152 10.7446 1.15596L10.7454 1.15148C10.7454 1.15148 13.3951 1.51315 16.1993 4.75852" stroke="white" stroke-width="0.996895" stroke-linecap="round" stroke-linejoin="round"/>
<path d="M16.0934 13.1179C14.7216 15.5832 12.0751 16.9997 9.03524 16.9997C7.61903 17.0002 6.22771 16.63 5.00162 15.9262C3.77553 15.2223 2.75803 14.2099 2.05176 12.991" stroke="white" stroke-width="0.996895" stroke-linecap="round" stroke-linejoin="round"/>
<path d="M31.2555 9.00007C31.2555 6.87838 30.4067 4.8436 28.8959 3.34334C27.3851 1.84308 25.336 1.00024 23.1993 1.00024C20.2086 1.00024 17.5986 2.37124 16.2087 4.76327" stroke="white" stroke-width="0.996895" stroke-linecap="round" stroke-linejoin="round"/>
<path d="M1.90649 5.2711C4.79915 1.83724 8.4369 5.51382 8.4369 5.51382L16.4164 13.3926C19.4388 16.7154 21.8703 16.9065 21.8703 16.9065C22.3106 16.9689 22.7548 17 23.1996 16.9996C24.6301 17.0002 26.0349 16.6223 27.2696 15.905C28.5044 15.1877 29.5244 14.1567 30.2248 12.9181" stroke="white" stroke-width="0.996895" stroke-linecap="round" stroke-linejoin="round"/>
<path d="M0.978271 9.00024H11.7933" stroke="white" stroke-width="0.996895" stroke-linecap="round" stroke-linejoin="round"/>
<path d="M20.6221 9.125H31.255" stroke="white" stroke-width="0.996895" stroke-linecap="round" stroke-linejoin="round"/>
<path d="M40.7707 12.7093C40.2922 12.4185 39.9056 12 39.655 11.5016C39.3799 10.9462 39.2431 10.3333 39.2564 9.71457C39.2421 9.08949 39.384 8.47064 39.6694 7.91332C39.9324 7.41123 40.3347 6.99447 40.8288 6.71238C41.357 6.41847 41.9549 6.27032 42.5602 6.28332C43.1496 6.26659 43.7327 6.40738 44.2486 6.69097C44.7177 6.96325 45.0937 7.36907 45.328 7.85592C45.5918 8.41945 45.7207 9.03594 45.7048 9.65718C45.7048 9.72419 45.7023 9.79306 45.6976 9.86442C45.6926 9.93608 45.6904 9.98138 45.6904 10.0003H39.9955V9.02832H44.7775L44.3139 9.68572C44.3518 9.61566 44.381 9.54128 44.4007 9.46421C44.4266 9.38321 44.4412 9.29908 44.4442 9.21415C44.4532 8.86106 44.3709 8.51156 44.2052 8.19905C44.0515 7.91928 43.8233 7.68683 43.5456 7.52707C43.245 7.35994 42.9047 7.27604 42.5602 7.28415C42.1626 7.27248 41.7692 7.36892 41.4227 7.56306C41.106 7.75187 40.8536 8.03069 40.6982 8.36348C40.5173 8.76587 40.4259 9.20226 40.4301 9.64291C40.4176 10.0938 40.5016 10.5421 40.6766 10.9583C40.8253 11.3029 41.0786 11.5927 41.4011 11.7873C41.7536 11.9867 42.1547 12.0857 42.5602 12.0733C42.9801 12.0818 43.3949 11.9807 43.7631 11.7801C44.1314 11.5643 44.4362 11.2562 44.6469 10.8867L45.5889 11.4727C45.2709 11.9975 44.8184 12.4291 44.2776 12.7236C43.702 13.0162 43.0618 13.1612 42.4153 13.1455C41.8367 13.1562 41.2668 13.0051 40.7707 12.7093V12.7093Z" fill="white"/>
<path d="M56.4277 13.0022H55.2686V8.99943C55.3026 8.56229 55.1932 8.12596 54.9568 7.75569C54.8399 7.61759 54.6915 7.5092 54.5239 7.43954C54.3563 7.36987 54.1744 7.34095 53.9933 7.35517C53.7058 7.3478 53.4212 7.41426 53.1672 7.54814C52.9346 7.67769 52.7475 7.87484 52.6311 8.11309C52.4991 8.38977 52.4346 8.69339 52.4427 8.99943V13.0022H51.2836V8.99943C51.3177 8.56229 51.2083 8.12596 50.9718 7.75569C50.8549 7.61762 50.7065 7.50924 50.5389 7.43958C50.3713 7.36991 50.1894 7.34098 50.0083 7.35517C49.7208 7.34776 49.4363 7.41423 49.1823 7.54814C48.9496 7.6776 48.7625 7.87477 48.6461 8.11309C48.5142 8.38977 48.4497 8.69339 48.4577 8.99943V13.0022H47.2983V6.42598H48.4577V7.384C48.6309 7.04418 48.8939 6.75752 49.2185 6.55473C49.5465 6.36755 49.92 6.27354 50.2982 6.28296C50.7198 6.2715 51.1355 6.38337 51.4936 6.60468C51.829 6.82176 52.0854 7.13993 52.2253 7.51244C52.4277 7.13401 52.7278 6.81579 53.0948 6.59041C53.4553 6.38221 53.8662 6.27589 54.2832 6.28296C54.6906 6.27064 55.0929 6.37489 55.4423 6.58327C55.7711 6.79517 56.0265 7.10202 56.1743 7.4625C56.3538 7.90505 56.4401 8.37946 56.4277 8.85641L56.4277 13.0022Z" fill="white"/>
<path d="M59.537 12.7093C59.0585 12.4185 58.6719 12 58.4214 11.5016C58.1462 10.9462 58.0095 10.3333 58.0227 9.71457C58.0084 9.08949 58.1503 8.47064 58.4357 7.91332C58.6987 7.41123 59.101 6.99447 59.5951 6.71238C60.1234 6.41847 60.7212 6.27032 61.3266 6.28332C61.916 6.26659 62.4991 6.40738 63.0149 6.69097C63.4841 6.96325 63.8601 7.36907 64.0943 7.85592C64.3582 8.41945 64.4871 9.03594 64.4711 9.65718C64.4711 9.72419 64.4686 9.79306 64.4639 9.86442C64.4589 9.93608 64.4568 9.98138 64.4568 10.0003H58.7619V9.02832H63.5439L63.0802 9.68572C63.1181 9.61566 63.1473 9.54127 63.1671 9.46421C63.193 9.38321 63.2076 9.29908 63.2105 9.21415C63.2196 8.86106 63.1373 8.51156 62.9715 8.19905C62.8178 7.91928 62.5897 7.68683 62.312 7.52707C62.0114 7.35994 61.671 7.27604 61.3266 7.28415C60.9289 7.27248 60.5356 7.36892 60.1891 7.56306C59.8723 7.75187 59.62 8.03069 59.4645 8.36348C59.2837 8.76587 59.1922 9.20226 59.1965 9.64291C59.1839 10.0938 59.268 10.5421 59.443 10.9583C59.5916 11.3029 59.8449 11.5927 60.1675 11.7873C60.52 11.9867 60.9211 12.0857 61.3266 12.0733C61.7465 12.0818 62.1612 11.9807 62.5294 11.7801C62.8977 11.5643 63.2025 11.2562 63.4133 10.8867L64.3552 11.4727C64.0372 11.9975 63.5848 12.4291 63.044 12.7236C62.4683 13.0162 61.8281 13.1612 61.1816 13.1455C60.6031 13.1562 60.0331 13.0051 59.537 12.7093V12.7093Z" fill="white"/>
<path d="M67.2226 13.003H66.0632V6.42679H67.2226V13.003ZM68.8166 7.43477C68.664 7.37755 68.5014 7.35078 68.3383 7.35596C68.0924 7.34166 67.8498 7.41812 67.6572 7.57065C67.4853 7.72625 67.3663 7.93104 67.3167 8.1567C67.2507 8.43299 67.2191 8.7163 67.2226 9.00024H66.7009C66.6917 8.52069 66.7882 8.04495 66.9836 7.60633C67.1483 7.23226 67.3989 6.90171 67.7153 6.64117C67.9687 6.4206 68.2914 6.29427 68.6282 6.28377C68.8562 6.28189 69.0833 6.31324 69.3021 6.37684C69.5218 6.44655 69.7191 6.57224 69.8745 6.74138L69.2368 7.68482C69.1072 7.58528 68.9662 7.50135 68.8166 7.43477V7.43477Z" fill="white"/>
<path d="M71.7378 11.6157C71.8616 11.7993 72.0385 11.9414 72.2452 12.0233C72.4824 12.1176 72.7361 12.1637 72.9916 12.1589C73.3253 12.1643 73.6555 12.0908 73.9551 11.9445C74.2336 11.8074 74.4691 11.5974 74.6362 11.3371C74.8079 11.0655 74.8961 10.75 74.8899 10.4293L75.1217 11.2868C75.1349 11.671 74.9972 12.0452 74.7377 12.3305C74.479 12.6088 74.1556 12.8199 73.7958 12.9454C73.4408 13.0757 73.0657 13.1434 72.6872 13.1455C72.2938 13.1482 71.9048 13.0626 71.5494 12.8951C71.2056 12.7361 70.9125 12.4864 70.7018 12.1732C70.4818 11.8327 70.3707 11.434 70.3831 11.0296C70.3724 10.7383 70.4289 10.4485 70.5481 10.1821C70.6674 9.91574 70.8464 9.67994 71.0714 9.49272C71.6209 9.07754 72.3023 8.87211 72.9916 8.91381C73.4011 8.90341 73.8096 8.95894 74.2013 9.07824C74.4764 9.1644 74.7376 9.28959 74.9767 9.44991C75.1208 9.54511 75.2522 9.658 75.3679 9.7859V10.4579C75.0494 10.2384 74.697 10.0718 74.3247 9.9646C73.9518 9.86241 73.5665 9.81188 73.1797 9.81444C72.8666 9.80405 72.5544 9.85258 72.2595 9.95746C72.0464 10.0345 71.862 10.1741 71.7306 10.3577C71.6115 10.5405 71.5509 10.7549 71.5569 10.9726C71.5509 11.2001 71.6139 11.4242 71.7378 11.6157ZM70.8177 7.09829C71.1413 6.87879 71.489 6.69653 71.854 6.55504C72.3598 6.36214 72.8989 6.2698 73.4405 6.28327C73.9081 6.27373 74.3732 6.35389 74.8102 6.51936C75.173 6.65547 75.4896 6.89095 75.7231 7.19848C75.9472 7.51609 76.0615 7.89731 76.0489 8.28494V13.0024H74.8899V8.44194C74.8971 8.24724 74.8573 8.05366 74.774 7.8773C74.6996 7.73306 74.5868 7.61189 74.4478 7.52704C74.298 7.43768 74.1337 7.37479 73.9623 7.34119C73.7716 7.30253 73.5774 7.2834 73.3827 7.2841C73.0817 7.28047 72.7816 7.31901 72.4914 7.39858C72.2568 7.46216 72.0307 7.55329 71.8178 7.67004C71.6341 7.77521 71.4891 7.8658 71.3829 7.94181L70.8177 7.09829Z" fill="white"/>
<path d="M79.5258 11.6447C79.6577 11.7913 79.8215 11.9062 80.0049 11.9806C80.1882 12.0549 80.3861 12.0868 80.5837 12.0737C80.8936 12.0804 81.2001 12.0091 81.4747 11.8665C81.7248 11.7343 81.9312 11.5332 82.069 11.2873C82.2129 11.0244 82.2853 10.7289 82.2792 10.4298V6.42676H83.4383V13.0029H82.2792V11.9735C82.0863 12.3335 81.8014 12.6367 81.4532 12.8528C81.1011 13.0542 80.7 13.1556 80.2938 13.1459C79.9811 13.159 79.6694 13.1029 79.3812 12.9817C79.093 12.8606 78.8355 12.6774 78.6273 12.4454C78.1914 11.9202 77.9692 11.2521 78.0043 10.5725V6.42676H79.1637V10.4298C79.1357 10.8646 79.264 11.2951 79.5258 11.6447V11.6447Z" fill="white"/>
<path d="M85.482 7.87705C85.7665 7.38192 86.1826 6.97398 86.6848 6.69783C87.1902 6.42052 87.7592 6.27764 88.3366 6.28304C88.8555 6.27123 89.3658 6.41585 89.8003 6.69783C90.2309 6.99247 90.5698 7.40097 90.7785 7.87705C91.2517 9.05424 91.2517 10.3669 90.7785 11.5441C90.5714 12.0231 90.2323 12.4343 89.8003 12.7305C89.3658 13.0125 88.8555 13.1571 88.3366 13.1452C87.7592 13.1506 87.1902 13.0078 86.6848 12.7305C86.1811 12.4531 85.7647 12.0424 85.482 11.5441C85.1868 10.9774 85.0327 10.3486 85.0327 9.71056C85.0327 9.0725 85.1868 8.44376 85.482 7.87703V7.87705ZM86.518 11.0009C86.7129 11.3413 87.0021 11.6191 87.3512 11.8013C87.6998 11.9827 88.088 12.076 88.4816 12.0731C88.8328 12.0695 89.1772 11.9759 89.4813 11.8013C89.819 11.6113 90.0993 11.3349 90.293 11.0009C90.5023 10.6038 90.6117 10.1623 90.6117 9.71414C90.6117 9.26597 90.5023 8.82447 90.293 8.42742C90.0991 8.09354 89.8189 7.8172 89.4813 7.62702C89.1772 7.45252 88.8328 7.35891 88.4816 7.35525C88.0881 7.35244 87.6999 7.44577 87.3512 7.62702C87.0022 7.80939 86.7131 8.08713 86.518 8.42744C86.3133 8.82589 86.2065 9.26684 86.2065 9.71416C86.2065 10.1615 86.3133 10.6024 86.518 11.0009L86.518 11.0009ZM91.7711 1.85156V13.0022H90.6117V1.85156H91.7711Z" fill="white"/>
<path d="M94.8073 12.7093C94.3287 12.4185 93.942 12 93.6913 11.5015C93.4163 10.9462 93.2797 10.3333 93.293 9.71456C93.2785 9.08947 93.4205 8.47058 93.706 7.91331C93.9689 7.41124 94.3711 6.99447 94.8651 6.71237C95.3935 6.41846 95.9914 6.27032 96.5969 6.28331C97.1862 6.26662 97.7692 6.40741 98.2849 6.69097C98.7541 6.96323 99.1303 7.36905 99.3646 7.85592C99.6282 8.41952 99.757 9.03597 99.7411 9.65717C99.7411 9.72418 99.7389 9.79305 99.7339 9.86441C99.7289 9.93607 99.7267 9.98137 99.7267 10.0003H94.0319V9.02831H98.8138L98.3502 9.68571C98.3882 9.61571 98.4174 9.54131 98.4371 9.4642C98.4629 9.3832 98.4775 9.29907 98.4805 9.21415C98.4895 8.86105 98.4072 8.51155 98.2415 8.19904C98.0879 7.91929 97.8599 7.68683 97.5823 7.52706C97.2816 7.36001 96.9413 7.27612 96.5969 7.28414C96.1992 7.27239 95.8058 7.36884 95.4593 7.56305C95.1426 7.75177 94.8901 8.03062 94.7348 8.36347C94.5537 8.76577 94.4622 9.20222 94.4668 9.6429C94.4543 10.0937 94.5382 10.542 94.713 10.9583C94.8618 11.3027 95.115 11.5925 95.4375 11.7873C95.7901 11.9867 96.1913 12.0856 96.5969 12.0733C97.0167 12.0818 97.4313 11.9807 97.7994 11.7801C98.1678 11.5642 98.4726 11.2562 98.6836 10.8866L99.6252 11.4727C99.3072 11.9975 98.8548 12.4291 98.314 12.7236C97.7384 13.0162 97.0983 13.1612 96.4519 13.1455C95.8734 13.1563 95.3034 13.0051 94.8073 12.7093V12.7093Z" fill="white"/>
<path d="M109.404 12.7093C108.926 12.4184 108.539 11.9999 108.289 11.5015C108.013 10.9462 107.877 10.3333 107.89 9.71456C107.876 9.08948 108.018 8.47063 108.303 7.91331C108.566 7.41129 108.968 6.99455 109.462 6.71237C109.991 6.41843 110.589 6.27028 111.194 6.28331C111.783 6.26662 112.366 6.40741 112.882 6.69097C113.351 6.96323 113.727 7.36905 113.962 7.85592C114.225 8.41952 114.354 9.03597 114.338 9.65717C114.338 9.72418 114.336 9.79305 114.331 9.86441C114.326 9.93607 114.324 9.98137 114.324 10.0003H108.629V9.02831H113.411L112.947 9.68571C112.985 9.61571 113.015 9.54131 113.034 9.4642C113.06 9.3832 113.075 9.29907 113.078 9.21415C113.087 8.86105 113.004 8.51155 112.839 8.19904C112.685 7.91929 112.457 7.68683 112.179 7.52706C111.879 7.36001 111.539 7.27612 111.194 7.28414C110.796 7.27239 110.403 7.36884 110.057 7.56305C109.74 7.75175 109.487 8.0306 109.332 8.36347C109.151 8.76587 109.059 9.20225 109.064 9.6429C109.051 10.0937 109.135 10.5421 109.31 10.9583C109.459 11.3028 109.712 11.5926 110.035 11.7873C110.387 11.9867 110.788 12.0857 111.194 12.0733C111.614 12.0818 112.029 11.9807 112.397 11.7801C112.765 11.5642 113.07 11.2562 113.281 10.8866L114.222 11.4727C113.904 11.9975 113.452 12.4291 112.911 12.7236C112.336 13.0162 111.696 13.1612 111.049 13.1455C110.47 13.1563 109.9 13.0051 109.404 12.7093Z" fill="white"/>
<path d="M116.673 11.5448C116.846 11.7162 117.05 11.8543 117.274 11.9522C117.509 12.0541 117.764 12.1052 118.02 12.1023C118.297 12.1179 118.57 12.0398 118.796 11.8808C118.888 11.8092 118.962 11.7166 119.011 11.6109C119.06 11.5052 119.083 11.3894 119.078 11.2731C119.084 11.0582 119.003 10.85 118.854 10.6942C118.69 10.5267 118.495 10.391 118.281 10.2939C118.049 10.1844 117.803 10.082 117.542 9.9865C117.242 9.86751 116.95 9.73148 116.666 9.57914C116.378 9.42822 116.126 9.21867 115.926 8.96424C115.73 8.68074 115.627 8.34444 115.63 8.00067C115.632 7.6569 115.741 7.32222 115.941 7.0417C116.154 6.78073 116.434 6.58282 116.752 6.46961C117.084 6.34626 117.435 6.2833 117.789 6.28376C118.132 6.28146 118.473 6.33953 118.796 6.4553C119.096 6.56249 119.378 6.717 119.629 6.91291C119.86 7.09179 120.053 7.31557 120.194 7.57062L119.267 8.1567C119.082 7.90751 118.847 7.6983 118.578 7.5418C118.295 7.37771 117.972 7.2937 117.644 7.29889C117.425 7.29294 117.209 7.34739 117.02 7.45618C116.936 7.50562 116.867 7.57714 116.821 7.6629C116.775 7.74865 116.754 7.84532 116.76 7.94233C116.76 8.02831 116.778 8.1133 116.813 8.19197C116.848 8.27065 116.899 8.34132 116.963 8.39962C117.116 8.54599 117.292 8.66669 117.484 8.75702C117.697 8.86219 117.919 8.9623 118.151 9.05733C118.514 9.19895 118.867 9.36372 119.209 9.55062C119.504 9.70745 119.763 9.92411 119.969 10.1866C120.168 10.4662 120.267 10.803 120.252 11.1446C120.258 11.4141 120.204 11.6816 120.096 11.9284C119.987 12.1753 119.825 12.3957 119.622 12.5742C119.163 12.9693 118.569 13.1741 117.962 13.146C117.549 13.1522 117.139 13.0717 116.76 12.9099C116.127 12.6376 115.609 12.1549 115.296 11.5448L116.209 10.9873C116.345 11.1879 116.5 11.3746 116.673 11.5448V11.5448Z" fill="white"/>
<path d="M122.59 10.9302C122.783 11.282 123.069 11.5746 123.418 11.7762C123.766 11.9779 124.164 12.0809 124.568 12.074C124.91 12.0764 125.251 12.0208 125.575 11.9096C125.871 11.8095 126.148 11.6595 126.394 11.4663C126.602 11.3091 126.771 11.106 126.886 10.8731V12.3027C126.617 12.5937 126.274 12.8084 125.893 12.9247C125.467 13.0717 125.019 13.1465 124.568 13.1462C123.954 13.1549 123.349 13.0019 122.814 12.7029C122.298 12.4132 121.87 11.991 121.575 11.4806C121.276 10.9384 121.119 10.33 121.119 9.71156C121.119 9.09313 121.276 8.4847 121.575 7.94257C121.872 7.43524 122.3 7.01573 122.814 6.72736C123.349 6.42851 123.954 6.27556 124.568 6.28402C125.019 6.28366 125.467 6.35865 125.893 6.50585C126.274 6.62206 126.617 6.83663 126.886 7.12757V8.55716C126.775 8.31965 126.605 8.11338 126.394 7.95684C126.147 7.76787 125.87 7.62049 125.575 7.52062C125.251 7.40957 124.91 7.35397 124.568 7.3562C124.159 7.34956 123.755 7.45338 123.401 7.65653C123.059 7.85623 122.778 8.14556 122.59 8.49294C122.387 8.86848 122.285 9.28932 122.292 9.71528C122.284 10.1389 122.386 10.5575 122.59 10.9302V10.9302Z" fill="white"/>
<path d="M129.401 11.6157C129.524 11.7994 129.701 11.9415 129.908 12.0234C130.145 12.1176 130.399 12.1637 130.654 12.1589C130.988 12.1643 131.318 12.0908 131.618 11.9446C131.896 11.8073 132.132 11.5973 132.299 11.3371C132.471 11.0654 132.559 10.75 132.552 10.4293L132.784 11.2868C132.797 11.671 132.66 12.0452 132.4 12.3305C132.142 12.6088 131.818 12.82 131.458 12.9454C131.103 13.0758 130.728 13.1435 130.35 13.1455C129.956 13.1482 129.568 13.0626 129.212 12.8951C128.869 12.7361 128.575 12.4864 128.365 12.1732C128.144 11.8328 128.033 11.4341 128.046 11.0297C128.035 10.7383 128.092 10.4484 128.211 10.1821C128.33 9.9157 128.509 9.67993 128.734 9.49272C129.284 9.07759 129.965 8.87215 130.654 8.91381C131.064 8.90339 131.472 8.95892 131.864 9.07824C132.139 9.1644 132.4 9.28959 132.64 9.44991C132.784 9.5452 132.915 9.65808 133.031 9.7859V10.4579C132.712 10.2384 132.36 10.0717 131.987 9.9646C131.614 9.86239 131.229 9.81186 130.843 9.81444C130.529 9.80399 130.217 9.85252 129.922 9.95746C129.709 10.0345 129.525 10.1741 129.393 10.3577C129.274 10.5405 129.214 10.7549 129.219 10.9726C129.214 11.2001 129.277 11.4242 129.401 11.6157V11.6157ZM128.481 7.09828C128.804 6.87885 129.152 6.69659 129.517 6.55503C130.023 6.36217 130.562 6.26983 131.103 6.28326C131.571 6.27369 132.036 6.35386 132.473 6.51936C132.836 6.6553 133.152 6.89081 133.386 7.19847C133.61 7.51599 133.724 7.89726 133.712 8.28494V13.0025H132.552V8.44194C132.56 8.24724 132.52 8.05365 132.437 7.8773C132.362 7.73308 132.25 7.6119 132.111 7.52704C131.961 7.43768 131.797 7.37479 131.625 7.34118C131.434 7.30253 131.24 7.2834 131.046 7.2841C130.745 7.28047 130.444 7.31901 130.154 7.39858C129.92 7.4621 129.693 7.55323 129.48 7.67004C129.297 7.77521 129.152 7.8658 129.046 7.94181L128.481 7.09828Z" fill="white"/>
<path d="M135.597 16.1486V6.4272H136.756V16.1486H135.597ZM141.886 11.5452C141.604 12.042 141.191 12.4524 140.69 12.7316C140.183 13.0106 139.611 13.1535 139.031 13.1464C138.515 13.1562 138.007 13.0117 137.575 12.7316C137.139 12.4374 136.797 12.0258 136.589 11.5452C136.116 10.368 136.116 9.05536 136.589 7.87817C136.799 7.40052 137.141 6.99165 137.575 6.69895C138.007 6.41888 138.515 6.27437 139.031 6.28416C139.611 6.27702 140.183 6.41998 140.69 6.69895C141.189 6.9769 141.602 7.38456 141.886 7.87817C142.181 8.4449 142.335 9.07364 142.335 9.71169C142.335 10.3497 142.181 10.9785 141.886 11.5452V11.5452ZM140.849 8.42854C140.656 8.08972 140.37 7.81222 140.024 7.62812C139.673 7.44527 139.282 7.35187 138.886 7.35635C138.535 7.35997 138.19 7.45358 137.886 7.62812C137.549 7.81823 137.268 8.0946 137.075 8.42854C136.865 8.82553 136.756 9.26705 136.756 9.71526C136.756 10.1635 136.865 10.605 137.075 11.002C137.268 11.3361 137.548 11.6125 137.886 11.8024C138.19 11.9771 138.535 12.0707 138.886 12.0742C139.282 12.0788 139.673 11.9854 140.024 11.8024C140.37 11.6185 140.656 11.341 140.849 11.002C141.054 10.6036 141.161 10.1626 141.161 9.71526C141.161 9.2679 141.054 8.82693 140.849 8.42854Z" fill="white"/>
<path d="M144.86 12.7093C144.382 12.4184 143.995 11.9999 143.745 11.5015C143.469 10.9462 143.333 10.3333 143.346 9.71456C143.332 9.08948 143.474 8.47063 143.759 7.91331C144.022 7.41129 144.424 6.99455 144.918 6.71237C145.447 6.41843 146.045 6.27028 146.65 6.28331C147.239 6.26662 147.822 6.40741 148.338 6.69097C148.807 6.96323 149.183 7.36905 149.418 7.85592C149.681 8.41952 149.81 9.03597 149.794 9.65717C149.794 9.72418 149.792 9.79305 149.787 9.86441C149.782 9.93607 149.78 9.98137 149.78 10.0003H144.085V9.02831H148.867L148.403 9.68571C148.441 9.61571 148.471 9.54131 148.49 9.4642C148.516 9.3832 148.531 9.29907 148.534 9.21415C148.543 8.86105 148.46 8.51155 148.295 8.19904C148.141 7.91929 147.913 7.68683 147.636 7.52706C147.335 7.36001 146.995 7.27612 146.65 7.28414C146.252 7.27239 145.859 7.36884 145.513 7.56305C145.196 7.75175 144.943 8.0306 144.788 8.36347C144.607 8.76587 144.515 9.20225 144.52 9.6429C144.507 10.0937 144.591 10.5421 144.766 10.9583C144.915 11.3028 145.168 11.5926 145.491 11.7873C145.843 11.9867 146.245 12.0857 146.65 12.0733C147.07 12.0818 147.485 11.9807 147.853 11.7801C148.221 11.5642 148.526 11.2562 148.737 10.8866L149.678 11.4727C149.36 11.9975 148.908 12.4291 148.367 12.7236C147.792 13.0162 147.152 13.1612 146.505 13.1455C145.927 13.1563 145.356 13.0051 144.86 12.7093V12.7093Z" fill="white"/>
<path d="M105.426 9.8541C105.428 10.174 105.334 10.4873 105.157 10.7543C104.979 11.0213 104.726 11.2299 104.429 11.3537C104.132 11.4776 103.805 11.5111 103.488 11.4499C103.172 11.3888 102.881 11.2358 102.653 11.0103C102.424 10.7848 102.268 10.4971 102.205 10.1835C102.141 9.86986 102.173 9.54455 102.295 9.24878C102.418 8.95302 102.627 8.70011 102.894 8.52212C103.162 8.34414 103.477 8.24909 103.799 8.24903C104.012 8.24833 104.223 8.28928 104.42 8.36956C104.617 8.44985 104.796 8.56789 104.947 8.71693C105.098 8.86598 105.218 9.04312 105.301 9.23823C105.383 9.43335 105.425 9.64263 105.426 9.8541Z" fill="white"/>
</svg>
