<svg width="150" height="18" viewBox="0 0 150 18" fill="none" xmlns="http://www.w3.org/2000/svg">
<path d="M16.2009 4.75928L24.1804 12.638C24.1804 12.638 27.5828 15.9133 30.225 12.919" stroke="#667085" stroke-width="0.996895" stroke-linecap="round" stroke-linejoin="round"/>
<path d="M0.978271 9.00032C0.978274 6.87864 1.82705 4.84385 3.33787 3.34359C4.84869 1.84334 6.8978 1.0005 9.03442 1.0005C9.6081 0.99964 10.1806 1.05177 10.7446 1.15621L10.7454 1.15172C10.7454 1.15172 13.3951 1.51339 16.1993 4.75877" stroke="#667085" stroke-width="0.996895" stroke-linecap="round" stroke-linejoin="round"/>
<path d="M16.0934 13.1181C14.7216 15.5835 12.0751 16.9999 9.03524 16.9999C7.61903 17.0005 6.22771 16.6302 5.00162 15.9264C3.77553 15.2226 2.75803 14.2102 2.05176 12.9912" stroke="#667085" stroke-width="0.996895" stroke-linecap="round" stroke-linejoin="round"/>
<path d="M31.2555 9.00031C31.2555 6.87863 30.4067 4.84384 28.8959 3.34358C27.3851 1.84333 25.336 1.00049 23.1993 1.00049C20.2086 1.00049 17.5986 2.37148 16.2087 4.76352" stroke="#667085" stroke-width="0.996895" stroke-linecap="round" stroke-linejoin="round"/>
<path d="M1.90649 5.27134C4.79915 1.83748 8.4369 5.51406 8.4369 5.51406L16.4164 13.3928C19.4388 16.7156 21.8703 16.9067 21.8703 16.9067C22.3106 16.9691 22.7548 17.0003 23.1996 16.9999C24.6301 17.0004 26.0349 16.6226 27.2696 15.9052C28.5044 15.1879 29.5244 14.1569 30.2248 12.9184" stroke="#667085" stroke-width="0.996895" stroke-linecap="round" stroke-linejoin="round"/>
<path d="M0.978271 9.00049H11.7933" stroke="#667085" stroke-width="0.996895" stroke-linecap="round" stroke-linejoin="round"/>
<path d="M20.6221 9.125H31.255" stroke="#667085" stroke-width="0.996895" stroke-linecap="round" stroke-linejoin="round"/>
<path d="M40.7707 12.7091C40.2922 12.4182 39.9056 11.9998 39.655 11.5013C39.3799 10.946 39.2431 10.3331 39.2564 9.71433C39.2421 9.08925 39.384 8.47039 39.6694 7.91307C39.9324 7.41098 40.3347 6.99423 40.8288 6.71213C41.357 6.41823 41.9549 6.27008 42.5602 6.28307C43.1496 6.26635 43.7327 6.40714 44.2486 6.69073C44.7177 6.96301 45.0937 7.36883 45.328 7.85568C45.5918 8.41921 45.7207 9.0357 45.7048 9.65693C45.7048 9.72395 45.7023 9.79282 45.6976 9.86417C45.6926 9.93584 45.6904 9.98113 45.6904 10.0001H39.9955V9.02808H44.7775L44.3139 9.68548C44.3518 9.61542 44.381 9.54103 44.4007 9.46396C44.4266 9.38296 44.4412 9.29883 44.4442 9.21391C44.4532 8.86082 44.3709 8.51132 44.2052 8.1988C44.0515 7.91904 43.8233 7.68658 43.5456 7.52682C43.245 7.3597 42.9047 7.2758 42.5602 7.28391C42.1626 7.27223 41.7692 7.36867 41.4227 7.56281C41.106 7.75162 40.8536 8.03045 40.6982 8.36323C40.5173 8.76563 40.4259 9.20201 40.4301 9.64266C40.4176 10.0935 40.5016 10.5419 40.6766 10.9581C40.8253 11.3026 41.0786 11.5924 41.4011 11.787C41.7536 11.9865 42.1547 12.0855 42.5602 12.0731C42.9801 12.0815 43.3949 11.9804 43.7631 11.7799C44.1314 11.5641 44.4362 11.256 44.6469 10.8864L45.5889 11.4725C45.2709 11.9972 44.8184 12.4289 44.2776 12.7233C43.702 13.016 43.0618 13.161 42.4153 13.1453C41.8367 13.156 41.2668 13.0048 40.7707 12.7091Z" fill="#667085"/>
<path d="M56.4277 13.0019H55.2686V8.99918C55.3026 8.56204 55.1932 8.12572 54.9568 7.75545C54.8399 7.61735 54.6915 7.50896 54.5239 7.43929C54.3563 7.36963 54.1744 7.34071 53.9933 7.35493C53.7058 7.34755 53.4212 7.41402 53.1672 7.5479C52.9346 7.67744 52.7475 7.87459 52.6311 8.11284C52.4991 8.38953 52.4346 8.69315 52.4427 8.99918V13.0019H51.2836V8.99918C51.3177 8.56204 51.2083 8.12572 50.9718 7.75545C50.8549 7.61737 50.7065 7.50899 50.5389 7.43933C50.3713 7.36967 50.1894 7.34074 50.0083 7.35493C49.7208 7.34751 49.4363 7.41398 49.1823 7.5479C48.9496 7.67735 48.7625 7.87453 48.6461 8.11284C48.5142 8.38953 48.4497 8.69315 48.4577 8.99918V13.0019H47.2983V6.42574H48.4577V7.38376C48.6309 7.04393 48.8939 6.75727 49.2185 6.55449C49.5465 6.36731 49.92 6.27329 50.2982 6.28272C50.7198 6.27125 51.1355 6.38313 51.4936 6.60444C51.829 6.82152 52.0854 7.13969 52.2253 7.5122C52.4277 7.13376 52.7278 6.81555 53.0948 6.59016C53.4553 6.38197 53.8662 6.27565 54.2832 6.28272C54.6906 6.2704 55.0929 6.37464 55.4423 6.58303C55.7711 6.79493 56.0265 7.10178 56.1743 7.46225C56.3538 7.9048 56.4401 8.37921 56.4277 8.85616L56.4277 13.0019Z" fill="#667085"/>
<path d="M59.537 12.7091C59.0585 12.4182 58.6719 11.9998 58.4214 11.5013C58.1462 10.946 58.0095 10.3331 58.0227 9.71433C58.0084 9.08925 58.1503 8.47039 58.4357 7.91307C58.6987 7.41098 59.101 6.99422 59.5951 6.71213C60.1234 6.41823 60.7212 6.27008 61.3266 6.28307C61.916 6.26635 62.4991 6.40714 63.0149 6.69073C63.4841 6.96301 63.8601 7.36883 64.0943 7.85568C64.3582 8.41921 64.4871 9.0357 64.4711 9.65693C64.4711 9.72395 64.4686 9.79282 64.4639 9.86417C64.4589 9.93584 64.4568 9.98113 64.4568 10.0001H58.7619V9.02808H63.5439L63.0802 9.68548C63.1181 9.61541 63.1473 9.54103 63.1671 9.46396C63.193 9.38296 63.2076 9.29883 63.2105 9.21391C63.2196 8.86082 63.1373 8.51132 62.9715 8.1988C62.8178 7.91904 62.5897 7.68658 62.312 7.52682C62.0114 7.35969 61.671 7.2758 61.3266 7.28391C60.9289 7.27223 60.5356 7.36867 60.1891 7.56281C59.8723 7.75162 59.62 8.03045 59.4645 8.36323C59.2837 8.76563 59.1922 9.20201 59.1965 9.64266C59.1839 10.0935 59.268 10.5419 59.443 10.9581C59.5916 11.3026 59.8449 11.5924 60.1675 11.787C60.52 11.9865 60.9211 12.0855 61.3266 12.0731C61.7465 12.0815 62.1612 11.9804 62.5294 11.7799C62.8977 11.5641 63.2025 11.256 63.4133 10.8864L64.3552 11.4725C64.0372 11.9972 63.5848 12.4289 63.044 12.7233C62.4683 13.016 61.8281 13.161 61.1816 13.1453C60.6031 13.156 60.0331 13.0048 59.537 12.7091Z" fill="#667085"/>
<path d="M67.2226 13.003H66.0632V6.42679H67.2226V13.003ZM68.8166 7.43477C68.664 7.37755 68.5014 7.35078 68.3383 7.35596C68.0924 7.34166 67.8498 7.41812 67.6572 7.57065C67.4853 7.72625 67.3663 7.93104 67.3167 8.1567C67.2507 8.43299 67.2191 8.7163 67.2226 9.00024H66.7009C66.6917 8.52069 66.7882 8.04495 66.9836 7.60633C67.1483 7.23226 67.3989 6.90171 67.7153 6.64117C67.9687 6.4206 68.2914 6.29427 68.6282 6.28377C68.8562 6.28189 69.0833 6.31324 69.3021 6.37684C69.5218 6.44655 69.7191 6.57224 69.8745 6.74138L69.2368 7.68482C69.1072 7.58528 68.9662 7.50135 68.8166 7.43477Z" fill="#667085"/>
<path d="M71.7378 11.6154C71.8616 11.7991 72.0385 11.9412 72.2452 12.0231C72.4824 12.1173 72.7361 12.1634 72.9916 12.1587C73.3253 12.164 73.6555 12.0906 73.9551 11.9443C74.2336 11.8072 74.4691 11.5971 74.6362 11.3369C74.8079 11.0653 74.8961 10.7498 74.8899 10.4291L75.1217 11.2866C75.1349 11.6708 74.9972 12.045 74.7377 12.3302C74.479 12.6085 74.1556 12.8196 73.7958 12.9451C73.4408 13.0755 73.0657 13.1432 72.6872 13.1452C72.2938 13.148 71.9048 13.0624 71.5494 12.8949C71.2056 12.7358 70.9125 12.4861 70.7018 12.173C70.4818 11.8324 70.3707 11.4338 70.3831 11.0294C70.3724 10.7381 70.4289 10.4482 70.5481 10.1818C70.6674 9.91549 70.8464 9.6797 71.0714 9.49248C71.6209 9.0773 72.3023 8.87186 72.9916 8.91357C73.4011 8.90316 73.8096 8.95869 74.2013 9.078C74.4764 9.16416 74.7376 9.28934 74.9767 9.44966C75.1208 9.54487 75.2522 9.65775 75.3679 9.78565V10.4576C75.0494 10.2382 74.697 10.0716 74.3247 9.96435C73.9518 9.86217 73.5665 9.81164 73.1797 9.8142C72.8666 9.8038 72.5544 9.85233 72.2595 9.95722C72.0464 10.0343 71.862 10.1739 71.7306 10.3574C71.6115 10.5403 71.5509 10.7546 71.5569 10.9723C71.5509 11.1999 71.6139 11.4239 71.7378 11.6154ZM70.8177 7.09804C71.1413 6.87855 71.489 6.69629 71.854 6.55479C72.3598 6.3619 72.8989 6.26956 73.4405 6.28302C73.9081 6.27349 74.3732 6.35365 74.8102 6.51912C75.173 6.65522 75.4896 6.8907 75.7231 7.19823C75.9472 7.51584 76.0615 7.89707 76.0489 8.28469V13.0022H74.8899V8.44169C74.8971 8.247 74.8573 8.05341 74.774 7.87706C74.6996 7.73282 74.5868 7.61165 74.4478 7.5268C74.298 7.43744 74.1337 7.37455 73.9623 7.34094C73.7716 7.30229 73.5774 7.28316 73.3827 7.28386C73.0817 7.28023 72.7816 7.31877 72.4914 7.39834C72.2568 7.46191 72.0307 7.55304 71.8178 7.6698C71.6341 7.77497 71.4891 7.86556 71.3829 7.94157L70.8177 7.09804Z" fill="#667085"/>
<path d="M79.5258 11.6447C79.6577 11.7913 79.8215 11.9062 80.0049 11.9806C80.1882 12.0549 80.3861 12.0868 80.5837 12.0738C80.8936 12.0804 81.2001 12.0091 81.4747 11.8665C81.7248 11.7343 81.9312 11.5332 82.069 11.2873C82.2129 11.0244 82.2853 10.7289 82.2792 10.4298V6.42676H83.4383V13.0029H82.2792V11.9735C82.0863 12.3335 81.8014 12.6367 81.4532 12.8528C81.1011 13.0542 80.7 13.1556 80.2938 13.1459C79.9811 13.159 79.6694 13.1029 79.3812 12.9817C79.093 12.8606 78.8355 12.6774 78.6273 12.4454C78.1914 11.9202 77.9692 11.2521 78.0043 10.5725V6.42676H79.1637V10.4298C79.1357 10.8646 79.264 11.2951 79.5258 11.6447Z" fill="#667085"/>
<path d="M85.482 7.87705C85.7665 7.38192 86.1826 6.97398 86.6848 6.69783C87.1902 6.42052 87.7592 6.27764 88.3366 6.28304C88.8555 6.27123 89.3658 6.41585 89.8003 6.69783C90.2309 6.99247 90.5698 7.40097 90.7785 7.87705C91.2517 9.05424 91.2517 10.3669 90.7785 11.5441C90.5714 12.0231 90.2323 12.4343 89.8003 12.7305C89.3658 13.0125 88.8555 13.1571 88.3366 13.1452C87.7592 13.1506 87.1902 13.0078 86.6848 12.7305C86.1811 12.4531 85.7647 12.0424 85.482 11.5441C85.1868 10.9774 85.0327 10.3486 85.0327 9.71056C85.0327 9.0725 85.1868 8.44376 85.482 7.87703V7.87705ZM86.518 11.0009C86.7129 11.3413 87.0021 11.6191 87.3512 11.8013C87.6998 11.9827 88.088 12.076 88.4816 12.0731C88.8328 12.0695 89.1772 11.9759 89.4813 11.8013C89.819 11.6113 90.0993 11.3349 90.293 11.0009C90.5023 10.6038 90.6117 10.1623 90.6117 9.71414C90.6117 9.26597 90.5023 8.82447 90.293 8.42742C90.0991 8.09354 89.8189 7.8172 89.4813 7.62702C89.1772 7.45252 88.8328 7.35891 88.4816 7.35525C88.0881 7.35244 87.6999 7.44577 87.3512 7.62702C87.0022 7.80939 86.7131 8.08713 86.518 8.42744C86.3133 8.82589 86.2065 9.26684 86.2065 9.71416C86.2065 10.1615 86.3133 10.6024 86.518 11.0009L86.518 11.0009ZM91.7711 1.85156V13.0022H90.6117V1.85156H91.7711Z" fill="#667085"/>
<path d="M94.8073 12.7091C94.3287 12.4183 93.942 11.9998 93.6913 11.5013C93.4163 10.9459 93.2797 10.3331 93.293 9.71432C93.2785 9.08922 93.4205 8.47033 93.706 7.91307C93.9689 7.41099 94.3711 6.99423 94.8651 6.71213C95.3935 6.41822 95.9914 6.27008 96.5969 6.28307C97.1862 6.26638 97.7692 6.40717 98.2849 6.69072C98.7541 6.96299 99.1303 7.3688 99.3646 7.85567C99.6282 8.41928 99.757 9.03573 99.7411 9.65693C99.7411 9.72394 99.7389 9.79281 99.7339 9.86417C99.7289 9.93583 99.7267 9.98113 99.7267 10.0001H94.0319V9.02807H98.8138L98.3502 9.68547C98.3882 9.61547 98.4174 9.54107 98.4371 9.46396C98.4629 9.38295 98.4775 9.29883 98.4805 9.2139C98.4895 8.86081 98.4072 8.51131 98.2415 8.1988C98.0879 7.91905 97.8599 7.68659 97.5823 7.52682C97.2816 7.35976 96.9413 7.27587 96.5969 7.2839C96.1992 7.27215 95.8058 7.36859 95.4593 7.56281C95.1426 7.75153 94.8901 8.03038 94.7348 8.36322C94.5537 8.76553 94.4622 9.20198 94.4668 9.64265C94.4543 10.0935 94.5382 10.5418 94.713 10.9581C94.8618 11.3025 95.115 11.5922 95.4375 11.787C95.7901 11.9864 96.1913 12.0854 96.5969 12.0731C97.0167 12.0815 97.4313 11.9804 97.7994 11.7799C98.1678 11.564 98.4726 11.2559 98.6836 10.8864L99.6252 11.4724C99.3072 11.9972 98.8548 12.4289 98.314 12.7233C97.7384 13.016 97.0983 13.161 96.4519 13.1453C95.8734 13.156 95.3034 13.0049 94.8073 12.7091Z" fill="#667085"/>
<path d="M109.404 12.7091C108.926 12.4182 108.539 11.9997 108.289 11.5013C108.013 10.946 107.877 10.3331 107.89 9.71432C107.876 9.08924 108.018 8.47038 108.303 7.91307C108.566 7.41104 108.968 6.99431 109.462 6.71213C109.991 6.41818 110.589 6.27004 111.194 6.28307C111.783 6.26638 112.366 6.40717 112.882 6.69072C113.351 6.96299 113.727 7.3688 113.962 7.85567C114.225 8.41928 114.354 9.03573 114.338 9.65693C114.338 9.72394 114.336 9.79281 114.331 9.86417C114.326 9.93583 114.324 9.98113 114.324 10.0001H108.629V9.02807H113.411L112.947 9.68547C112.985 9.61547 113.015 9.54107 113.034 9.46396C113.06 9.38295 113.075 9.29883 113.078 9.2139C113.087 8.86081 113.004 8.51131 112.839 8.1988C112.685 7.91905 112.457 7.68659 112.179 7.52682C111.879 7.35976 111.539 7.27587 111.194 7.2839C110.796 7.27215 110.403 7.36859 110.057 7.56281C109.74 7.75151 109.487 8.03036 109.332 8.36322C109.151 8.76562 109.059 9.20201 109.064 9.64265C109.051 10.0935 109.135 10.5418 109.31 10.9581C109.459 11.3025 109.712 11.5923 110.035 11.787C110.387 11.9865 110.788 12.0854 111.194 12.0731C111.614 12.0815 112.029 11.9804 112.397 11.7799C112.765 11.564 113.07 11.2559 113.281 10.8864L114.222 11.4724C113.904 11.9972 113.452 12.4289 112.911 12.7233C112.336 13.016 111.696 13.161 111.049 13.1453C110.47 13.156 109.9 13.0049 109.404 12.7091Z" fill="#667085"/>
<path d="M116.673 11.5448C116.846 11.7162 117.05 11.8543 117.274 11.9522C117.509 12.0541 117.764 12.1052 118.02 12.1023C118.297 12.1179 118.57 12.0398 118.796 11.8808C118.888 11.8092 118.962 11.7166 119.011 11.6109C119.06 11.5052 119.083 11.3894 119.078 11.2731C119.084 11.0582 119.003 10.85 118.854 10.6942C118.69 10.5267 118.495 10.391 118.281 10.2939C118.049 10.1844 117.803 10.082 117.542 9.9865C117.242 9.86751 116.95 9.73148 116.666 9.57914C116.378 9.42822 116.126 9.21867 115.926 8.96424C115.73 8.68074 115.627 8.34444 115.63 8.00067C115.632 7.6569 115.741 7.32222 115.941 7.0417C116.154 6.78073 116.434 6.58282 116.752 6.46961C117.084 6.34626 117.435 6.2833 117.789 6.28376C118.132 6.28146 118.473 6.33953 118.796 6.4553C119.096 6.56249 119.378 6.717 119.629 6.91291C119.86 7.09179 120.053 7.31557 120.194 7.57062L119.267 8.1567C119.082 7.90751 118.847 7.6983 118.578 7.5418C118.295 7.37771 117.972 7.2937 117.644 7.29889C117.425 7.29294 117.209 7.34739 117.02 7.45618C116.936 7.50562 116.867 7.57714 116.821 7.6629C116.775 7.74865 116.754 7.84532 116.76 7.94233C116.76 8.02831 116.778 8.1133 116.813 8.19197C116.848 8.27065 116.899 8.34132 116.963 8.39962C117.116 8.54599 117.292 8.66669 117.484 8.75702C117.697 8.86219 117.919 8.9623 118.151 9.05733C118.514 9.19895 118.867 9.36372 119.209 9.55062C119.504 9.70745 119.763 9.92411 119.969 10.1866C120.168 10.4662 120.267 10.803 120.252 11.1446C120.258 11.4141 120.204 11.6816 120.096 11.9284C119.987 12.1753 119.825 12.3957 119.622 12.5742C119.163 12.9693 118.569 13.1741 117.962 13.146C117.549 13.1522 117.139 13.0717 116.76 12.9099C116.127 12.6376 115.609 12.1549 115.296 11.5448L116.209 10.9873C116.345 11.1879 116.5 11.3746 116.673 11.5448Z" fill="#667085"/>
<path d="M122.59 10.9302C122.783 11.282 123.069 11.5746 123.418 11.7762C123.766 11.9779 124.164 12.0809 124.568 12.074C124.91 12.0764 125.251 12.0208 125.575 11.9096C125.871 11.8095 126.148 11.6595 126.394 11.4663C126.602 11.3091 126.771 11.106 126.886 10.8731V12.3027C126.617 12.5937 126.274 12.8084 125.893 12.9247C125.467 13.0717 125.019 13.1465 124.568 13.1462C123.954 13.1549 123.349 13.0019 122.814 12.7029C122.298 12.4132 121.87 11.991 121.575 11.4806C121.276 10.9384 121.119 10.33 121.119 9.71156C121.119 9.09313 121.276 8.4847 121.575 7.94257C121.872 7.43524 122.3 7.01573 122.814 6.72736C123.349 6.42851 123.954 6.27556 124.568 6.28402C125.019 6.28366 125.467 6.35865 125.893 6.50585C126.274 6.62206 126.617 6.83663 126.886 7.12757V8.55716C126.775 8.31965 126.605 8.11338 126.394 7.95684C126.147 7.76787 125.87 7.62049 125.575 7.52062C125.251 7.40957 124.91 7.35397 124.568 7.3562C124.159 7.34956 123.755 7.45338 123.401 7.65653C123.059 7.85623 122.778 8.14556 122.59 8.49294C122.387 8.86848 122.285 9.28932 122.292 9.71528C122.284 10.1389 122.386 10.5575 122.59 10.9302Z" fill="#667085"/>
<path d="M129.401 11.6155C129.524 11.7991 129.701 11.9413 129.908 12.0231C130.145 12.1173 130.399 12.1634 130.654 12.1587C130.988 12.164 131.318 12.0906 131.618 11.9443C131.896 11.807 132.132 11.597 132.299 11.3369C132.471 11.0652 132.559 10.7497 132.552 10.4291L132.784 11.2866C132.797 11.6708 132.66 12.045 132.4 12.3302C132.142 12.6086 131.818 12.8197 131.458 12.9451C131.103 13.0755 130.728 13.1432 130.35 13.1452C129.956 13.148 129.568 13.0624 129.212 12.8949C128.869 12.7358 128.575 12.4861 128.365 12.173C128.144 11.8325 128.033 11.4338 128.046 11.0294C128.035 10.7381 128.092 10.4482 128.211 10.1818C128.33 9.91546 128.509 9.67968 128.734 9.49248C129.284 9.07734 129.965 8.87191 130.654 8.91357C131.064 8.90314 131.472 8.95867 131.864 9.078C132.139 9.16416 132.4 9.28934 132.64 9.44966C132.784 9.54495 132.915 9.65783 133.031 9.78565V10.4576C132.712 10.2381 132.36 10.0715 131.987 9.96435C131.614 9.86215 131.229 9.81162 130.843 9.8142C130.529 9.80375 130.217 9.85228 129.922 9.95722C129.709 10.0343 129.525 10.1739 129.393 10.3574C129.274 10.5402 129.214 10.7546 129.219 10.9723C129.214 11.1999 129.277 11.424 129.401 11.6155ZM128.481 7.09804C128.804 6.8786 129.152 6.69635 129.517 6.55479C130.023 6.36192 130.562 6.26958 131.103 6.28302C131.571 6.27345 132.036 6.35361 132.473 6.51911C132.836 6.65505 133.152 6.89056 133.386 7.19823C133.61 7.51574 133.724 7.89701 133.712 8.28469V13.0022H132.552V8.44169C132.56 8.247 132.52 8.05341 132.437 7.87705C132.362 7.73283 132.25 7.61166 132.111 7.52679C131.961 7.43743 131.797 7.37455 131.625 7.34094C131.434 7.30229 131.24 7.28316 131.046 7.28386C130.745 7.28023 130.444 7.31877 130.154 7.39833C129.92 7.46186 129.693 7.55299 129.48 7.66979C129.297 7.77497 129.152 7.86556 129.046 7.94157L128.481 7.09804Z" fill="#667085"/>
<path d="M135.597 16.1486V6.4272H136.756V16.1486H135.597ZM141.886 11.5452C141.604 12.042 141.191 12.4524 140.69 12.7316C140.183 13.0106 139.611 13.1535 139.031 13.1464C138.515 13.1562 138.007 13.0117 137.575 12.7316C137.139 12.4374 136.797 12.0258 136.589 11.5452C136.116 10.368 136.116 9.05536 136.589 7.87817C136.799 7.40052 137.141 6.99165 137.575 6.69895C138.007 6.41888 138.515 6.27437 139.031 6.28416C139.611 6.27702 140.183 6.41998 140.69 6.69895C141.189 6.9769 141.602 7.38456 141.886 7.87817C142.181 8.4449 142.335 9.07364 142.335 9.71169C142.335 10.3497 142.181 10.9785 141.886 11.5452ZM140.849 8.42854C140.656 8.08972 140.37 7.81222 140.024 7.62812C139.673 7.44527 139.282 7.35187 138.886 7.35635C138.535 7.35997 138.19 7.45358 137.886 7.62812C137.549 7.81823 137.268 8.0946 137.075 8.42854C136.865 8.82553 136.756 9.26705 136.756 9.71526C136.756 10.1635 136.865 10.605 137.075 11.002C137.268 11.3361 137.548 11.6125 137.886 11.8024C138.19 11.9771 138.535 12.0707 138.886 12.0742C139.282 12.0788 139.673 11.9854 140.024 11.8024C140.37 11.6185 140.656 11.341 140.849 11.002C141.054 10.6036 141.161 10.1626 141.161 9.71526C141.161 9.2679 141.054 8.82693 140.849 8.42854Z" fill="#667085"/>
<path d="M144.861 12.7091C144.382 12.4181 143.996 11.9997 143.745 11.5013C143.47 10.946 143.333 10.3331 143.346 9.71432C143.332 9.08924 143.474 8.47038 143.759 7.91307C144.022 7.41104 144.425 6.99431 144.919 6.71213C145.447 6.41818 146.045 6.27004 146.65 6.28307C147.24 6.26638 147.823 6.40717 148.338 6.69072C148.808 6.96299 149.184 7.3688 149.418 7.85567C149.682 8.41928 149.811 9.03573 149.795 9.65693C149.795 9.72394 149.792 9.79281 149.787 9.86417C149.782 9.93583 149.78 9.98113 149.78 10.0001H144.085V9.02807H148.867L148.404 9.68547C148.442 9.61547 148.471 9.54107 148.491 9.46396C148.516 9.38295 148.531 9.29883 148.534 9.2139C148.543 8.86081 148.461 8.51131 148.295 8.1988C148.141 7.91905 147.913 7.68659 147.636 7.52682C147.335 7.35976 146.995 7.27587 146.65 7.2839C146.253 7.27215 145.859 7.36859 145.513 7.56281C145.196 7.75151 144.943 8.03036 144.788 8.36322C144.607 8.76562 144.516 9.20201 144.52 9.64265C144.508 10.0935 144.592 10.5418 144.766 10.9581C144.915 11.3025 145.168 11.5923 145.491 11.787C145.844 11.9865 146.245 12.0854 146.65 12.0731C147.07 12.0815 147.485 11.9804 147.853 11.7799C148.221 11.564 148.526 11.2559 148.737 10.8864L149.679 11.4724C149.361 11.9972 148.908 12.4289 148.367 12.7233C147.792 13.016 147.152 13.161 146.505 13.1453C145.927 13.156 145.357 13.0049 144.861 12.7091Z" fill="#667085"/>
<path d="M105.426 9.8541C105.428 10.174 105.334 10.4873 105.157 10.7543C104.979 11.0213 104.726 11.2299 104.429 11.3537C104.132 11.4776 103.805 11.5111 103.488 11.4499C103.172 11.3888 102.881 11.2358 102.653 11.0103C102.424 10.7848 102.268 10.4971 102.205 10.1835C102.141 9.86986 102.173 9.54455 102.295 9.24878C102.418 8.95302 102.627 8.70011 102.894 8.52212C103.162 8.34414 103.477 8.24909 103.799 8.24903C104.012 8.24833 104.223 8.28928 104.42 8.36956C104.617 8.44985 104.796 8.56789 104.947 8.71693C105.098 8.86598 105.218 9.04312 105.301 9.23823C105.383 9.43335 105.425 9.64263 105.426 9.8541Z" fill="#667085"/>
</svg>
