<svg width="24" height="24" viewBox="0 0 24 24" fill="none" xmlns="http://www.w3.org/2000/svg">
<g clip-path="url(#clip0_181_3274)">
<path d="M12 24C18.6274 24 24 18.6274 24 12C24 5.37258 18.6274 0 12 0C5.37258 0 0 5.37258 0 12C0 18.6274 5.37258 24 12 24Z" fill="#3D9635"/>
<path d="M3.52871 6.98617C3.48896 7.60642 3.43796 8.70367 3.90371 8.81467C4.46996 8.87317 4.15796 7.73392 4.36196 7.52692C4.40096 7.42642 4.47296 7.42642 4.47821 7.55317V8.52367C4.47033 8.62672 4.49815 8.72935 4.55702 8.8143C4.61589 8.89926 4.7022 8.96136 4.80146 8.99017C4.95146 8.97892 5.04896 8.98417 5.10671 9.14917C5.13171 9.70567 5.15496 10.2622 5.17646 10.8187C5.17646 10.8187 5.52221 10.9349 5.53871 9.88042C5.50417 9.46287 5.4934 9.04369 5.50646 8.62492C5.50646 8.50792 5.64146 8.49742 5.73746 8.56117C5.88746 8.67817 5.95196 8.82067 6.18146 8.76292C6.53246 8.65117 6.74096 8.46292 6.74696 8.15842C6.73832 7.86413 6.68522 7.57283 6.58946 7.29442C6.60446 7.24117 6.51971 7.10917 6.53771 7.05592C6.59996 7.16767 6.69446 7.15642 6.71546 7.05592C6.68139 6.8507 6.57496 6.66446 6.41546 6.53092C6.29096 6.40867 6.10721 6.43492 6.04046 6.69517C6.03346 7.02722 6.13453 7.35255 6.32846 7.62217C6.38827 7.76998 6.41267 7.92974 6.39971 8.08867C6.35309 8.11756 6.29702 8.12707 6.24348 8.11516C6.18994 8.10324 6.14318 8.07085 6.11321 8.02492C6.11321 8.02492 5.83121 7.78642 5.83121 7.73917C5.89948 7.49257 5.89137 7.23107 5.80796 6.98917C5.77685 6.84394 5.71439 6.70725 5.62496 6.58867C5.55596 6.49867 5.46146 6.49867 5.41646 6.58867C5.31724 6.91122 5.32514 7.25723 5.43896 7.57492C5.50121 7.78642 5.60171 7.91917 5.55596 7.91917C5.51696 8.04142 5.43746 8.00917 5.38046 7.87117C5.31194 7.57415 5.27945 7.26996 5.28371 6.96517C5.25746 6.72667 5.22896 6.21517 5.09021 6.08542C5.00546 5.95792 4.87796 6.02167 4.83296 6.14392C4.82216 6.37348 4.82692 6.6035 4.84721 6.83242C4.93022 7.19904 4.98811 7.57091 5.02046 7.94542C5.03246 8.47042 4.75196 8.17042 4.76396 7.90867C4.82387 7.57704 4.82056 7.23707 4.75421 6.90667C4.70846 6.76942 4.65446 6.73717 4.54121 6.76417C4.45121 6.75292 4.22396 7.03417 4.16021 7.50067C4.12685 7.65118 4.10181 7.80341 4.08521 7.95667C4.05221 8.19517 3.91196 8.36467 3.81371 7.91917C3.72671 7.59592 3.67571 6.80092 3.53321 6.98617" fill="white"/>
<path d="M5.0698 9.53037C4.56955 9.81162 4.08355 10.0659 3.59155 10.3306C3.6746 10.0653 3.82673 9.82683 4.03233 9.63968C4.23793 9.45253 4.48961 9.32343 4.76155 9.26562C5.06155 9.27613 4.98655 9.39837 5.0698 9.53037Z" fill="white"/>
<path d="M6.95474 6.02186C6.92211 6.02859 6.89038 6.03917 6.86024 6.05336C6.78373 6.07992 6.72042 6.135 6.68353 6.20711C6.64664 6.27921 6.63901 6.36277 6.66224 6.44036C6.80474 7.41536 6.89549 8.15786 7.03724 9.12761C7.06199 9.24461 6.97499 9.39311 6.86624 9.38261C6.67949 9.23936 6.63299 8.94761 6.31499 8.96336C6.18071 8.99052 6.05814 9.0586 5.96412 9.15825C5.87011 9.2579 5.80928 9.38423 5.78999 9.51986C5.74718 9.7297 5.74718 9.94603 5.78999 10.1559C5.84656 10.2378 5.92985 10.2976 6.02561 10.325C6.12137 10.3523 6.22366 10.3456 6.31499 10.3059C6.45449 10.2421 6.57074 10.0809 6.62024 10.1206C6.65099 10.1844 6.61574 10.6929 5.96174 11.0799C5.55749 11.2809 5.23799 11.3341 5.06174 10.9629C4.95674 10.7304 5.06999 9.84986 4.80824 10.0516C4.02974 12.3091 6.62999 12.6271 6.92174 10.1469C6.94049 10.0779 6.99674 10.0089 7.03949 10.0254C7.05899 10.0359 7.07249 10.0621 7.07699 10.1154C7.01699 12.3571 5.06624 12.5056 4.73549 11.8059C4.65532 11.5612 4.61579 11.3051 4.61849 11.0476C4.61819 10.9584 4.59043 10.8715 4.53899 10.7986C4.45949 10.7356 4.35374 10.9104 4.32974 11.2126C4.30588 11.3916 4.2981 11.5723 4.30649 11.7526C4.40999 13.5339 6.92249 12.7704 7.33274 11.3026C7.41363 10.8398 7.4363 10.3686 7.40024 9.90011H7.40849L7.41449 9.89486C7.66874 10.1949 8.01449 9.93161 8.09324 9.83111C8.10151 9.81613 8.11322 9.80332 8.12741 9.79375C8.14161 9.78417 8.15787 9.77811 8.17486 9.77606C8.19186 9.77401 8.2091 9.77603 8.22516 9.78195C8.24122 9.78787 8.25564 9.79752 8.26724 9.81011C8.31624 9.84935 8.37415 9.87593 8.43585 9.88749C8.49755 9.89906 8.56115 9.89526 8.62103 9.87644C8.68092 9.85761 8.73525 9.82434 8.77923 9.77955C8.82322 9.73476 8.8555 9.67983 8.87324 9.61961C8.91737 9.34044 8.94566 9.05899 8.95799 8.77661C8.8594 8.7981 8.76688 8.84141 8.68724 8.90336C8.67667 8.91547 8.66966 8.93027 8.66699 8.94611C8.65724 9.02111 8.64674 9.10511 8.63474 9.18461C8.63334 9.1917 8.63159 9.19871 8.62949 9.20561C8.62353 9.21511 8.61493 9.22267 8.60474 9.22736C8.59272 9.2355 8.57876 9.2403 8.56427 9.24125C8.54979 9.24221 8.53532 9.23929 8.52234 9.2328C8.50935 9.22631 8.49833 9.21648 8.49041 9.20432C8.48248 9.19216 8.47794 9.17811 8.47724 9.16361C8.41799 8.86361 8.17049 8.81336 8.01974 9.29036C7.91624 9.38636 7.73474 9.40211 7.71449 9.26936C7.74074 8.94611 7.62374 8.90336 7.39424 9.05186C7.31924 8.41586 7.24424 7.81211 7.16924 7.17686C7.26674 7.17686 7.35224 7.25636 7.44149 7.13411C7.36088 6.75744 7.22383 6.3951 7.03499 6.05936C7.0294 6.05178 7.02339 6.04452 7.01699 6.03761C7.01538 6.03749 7.01384 6.03694 7.01252 6.03601C7.0112 6.03509 7.01016 6.03383 7.00949 6.03236H7.00049C6.99599 6.02711 6.98849 6.02711 6.98774 6.02186C6.97574 6.02186 6.96524 6.01661 6.95474 6.02186M6.25574 9.50411C6.28627 9.50125 6.31683 9.50923 6.34206 9.52664C6.3673 9.54406 6.38559 9.56981 6.39374 9.59936C6.40291 9.62783 6.40511 9.65809 6.40015 9.68759C6.39519 9.71708 6.38322 9.74496 6.36524 9.76886C6.34499 9.80636 6.27899 9.79061 6.22949 9.79061C6.20451 9.79296 6.17941 9.7876 6.15756 9.77527C6.1357 9.76293 6.11815 9.74421 6.10724 9.72161C6.08924 9.66311 6.13874 9.60461 6.16274 9.55736C6.18674 9.51011 6.16724 9.54686 6.17099 9.54161C6.19541 9.52181 6.22466 9.50887 6.25574 9.50411" fill="white"/>
<path d="M8.70599 5.96851C8.64455 5.97451 8.5849 5.9926 8.53049 6.02176C8.46742 6.088 8.42784 6.17311 8.41781 6.26402C8.40779 6.35493 8.42787 6.44661 8.47499 6.52501C8.57399 6.57301 8.67299 6.69001 8.60549 6.75001C8.32799 7.08451 7.59974 7.65001 7.56299 7.75201V7.75726V7.76251H7.56899C7.74855 7.79319 7.93187 7.79497 8.11199 7.76776V7.76251C8.43996 7.44906 8.74102 7.10861 9.01199 6.74476C8.97524 6.70801 8.93699 6.68101 8.90024 6.64426C8.89148 6.63723 8.88441 6.62832 8.87955 6.6182C8.87469 6.60807 8.87217 6.59699 8.87217 6.58576C8.87217 6.57453 8.87469 6.56344 8.87955 6.55331C8.88441 6.54319 8.89148 6.53428 8.90024 6.52726C8.97092 6.4634 9.01374 6.37437 9.01949 6.27929C9.02524 6.18421 8.99346 6.09066 8.93099 6.01876C8.86221 5.98134 8.78405 5.96467 8.70599 5.97076M8.67149 6.26251C8.71724 6.25726 8.77049 6.31051 8.79749 6.37351C8.82449 6.43651 8.81174 6.51151 8.76674 6.52726C8.72174 6.54301 8.65949 6.49051 8.62949 6.42151C8.59949 6.35251 8.61599 6.27826 8.66324 6.26776C8.66324 6.26776 8.66324 6.26251 8.67149 6.26251" fill="white"/>
<path d="M3.64341 11.1314C3.51847 11.3515 3.44063 11.5952 3.41481 11.8469C3.38899 12.0987 3.41575 12.3531 3.49341 12.5939C3.52742 12.6433 3.57587 12.681 3.63212 12.7018C3.68837 12.7226 3.74968 12.7256 3.80766 12.7102C3.98091 12.6254 4.05891 12.2279 4.01616 12.0854C3.95841 11.9789 3.91266 11.9632 3.85341 12.0532C3.73266 12.3292 3.68091 12.1379 3.66966 11.9782C3.65564 11.7162 3.66669 11.4535 3.70266 11.1937C3.73341 10.9769 3.70266 11.0399 3.64191 11.1307" fill="white"/>
<path d="M15.5055 10.3364C15.2385 9.68391 14.8665 9.04266 14.7487 8.79891C14.631 8.55516 13.7377 7.09791 13.6057 6.92841C13.3147 6.54141 14.0767 7.09266 13.509 6.31866C13.2945 6.11166 13.284 6.10116 13.0987 5.93166C13.0117 5.85666 12.7875 5.73066 12.7515 5.94216C12.731 6.09584 12.7374 6.2519 12.7702 6.40341C12.8267 6.54394 12.9024 6.67595 12.9952 6.79566C13.9504 8.21583 14.781 9.71591 15.4777 11.2792C15.6007 11.2162 15.5745 10.4474 15.5017 10.3364" fill="white"/>
<path d="M14.3293 12.5092C14.2746 12.5729 14.4576 12.8639 14.6968 12.8587C15.0936 12.8114 15.4468 12.5587 15.7678 11.8942C15.9015 11.6672 15.9851 11.4143 16.0131 11.1524C16.0531 9.89653 15.9634 8.63987 15.7453 7.40242C15.7314 7.31612 15.7348 7.22793 15.7551 7.14292C15.7806 7.10617 15.8683 7.14292 15.9141 7.05817C15.9838 6.97867 15.7348 6.33217 15.5931 6.08317C15.5428 5.97142 15.5248 5.89792 15.4431 6.09367C15.3417 6.31625 15.2939 6.55951 15.3036 6.80392C15.4933 8.27767 15.5511 9.57892 15.6786 11.0489C15.6998 11.2003 15.6669 11.3544 15.5856 11.4839C15.2485 11.9146 14.8206 12.2657 14.3323 12.5122" fill="white"/>
<path d="M18.8863 14.6632C18.599 14.8492 18.599 15.066 18.8323 15.0712C19.0696 15.0769 19.3043 15.0208 19.5134 14.9084C19.7224 14.7959 19.8987 14.6311 20.0248 14.43C20.1389 14.169 20.2042 13.8894 20.2175 13.605C20.2714 12.2497 20.1991 10.8923 20.0015 9.55047C19.9762 9.42477 19.9628 9.29694 19.9618 9.16872C19.9888 9.09972 20.117 9.17922 20.1605 9.09372C20.231 9.01872 19.8283 8.43147 19.6843 8.18247C19.6363 8.07072 19.6183 7.99647 19.5343 8.19822C19.4396 8.4204 19.4109 8.66517 19.4518 8.90322C19.665 10.4217 19.7982 11.9503 19.8508 13.4827C19.8407 13.6106 19.814 13.7367 19.7713 13.8577C19.6622 14.0439 19.5315 14.2166 19.382 14.3722C19.25 14.478 18.974 14.5837 18.8848 14.6632" fill="white"/>
<path d="M19.9146 11.0626C19.9101 10.6876 19.9243 10.3628 19.9101 10.0816C19.8958 9.80034 19.7841 8.75109 19.7488 8.52909C19.7136 8.30709 19.6693 7.96209 19.6153 7.69134C19.5839 7.53424 19.5673 7.37454 19.5658 7.21434C19.5868 7.13934 19.6791 7.21959 19.7203 7.12959C19.6731 6.71666 19.5457 6.31693 19.3453 5.95284C19.2936 5.84184 19.1953 5.87784 19.0761 6.05934C18.9621 6.17559 19.0011 6.44034 19.0468 6.69534C19.359 8.3534 19.5107 10.0377 19.4998 11.7248C19.4833 11.8576 19.9191 11.3168 19.9146 11.0626" fill="white"/>
<path d="M17.8078 8.98434C17.6271 8.97909 17.2506 8.59209 17.1411 8.36484C17.1081 8.25438 17.1156 8.13581 17.1621 8.03034C17.2288 7.98309 17.3316 7.92459 17.4073 7.98309C17.4073 7.98309 17.4868 8.10459 17.4718 8.12109C17.5693 8.17359 17.6121 8.14209 17.6219 8.09409C17.6279 8.01909 17.5911 7.97259 17.5911 7.88784C17.6323 7.64934 17.8716 7.61709 17.9661 7.76559C18.0306 7.8939 18.065 8.03524 18.0666 8.17884C18.0666 8.24784 17.9683 8.16834 17.9166 8.18409C17.8648 8.19984 17.8483 8.26959 17.8416 8.33409C17.8296 8.50884 17.8131 8.77959 17.8108 8.98584" fill="white"/>
<path d="M14.4914 11.481C14.5424 10.9665 14.4749 9.92771 14.4704 9.62621C14.4539 8.91596 14.3481 7.54271 14.3009 7.31471C14.2439 6.88046 14.4576 7.36271 14.4269 7.10846C14.3327 6.70161 14.1512 6.32007 13.8951 5.99021C13.8156 5.86271 13.8201 5.83646 13.6926 6.02171C13.6115 6.30665 13.6173 6.60931 13.7091 6.89096C13.8806 7.72292 13.9924 8.56607 14.0436 9.41396C14.0978 10.307 14.1046 11.2022 14.0639 12.096C14.1996 12.096 14.4164 11.847 14.4914 11.481" fill="white"/>
<path d="M20.5273 10.6597C20.213 10.0597 19.733 9.3607 19.6063 9.1222C19.4795 8.8837 18.3965 7.1032 18.2615 6.9472C17.8655 6.48595 18.443 6.8722 18.1865 6.50695C18.0486 6.32169 17.8917 6.15128 17.7185 5.99845C17.6263 5.9347 17.5685 5.80195 17.5385 6.01945C17.5222 6.21324 17.5174 6.40784 17.5243 6.6022C17.5451 6.73393 17.5993 6.85813 17.6818 6.96295C18.7511 8.43019 19.7009 9.98092 20.522 11.6002C20.642 11.5372 20.6008 10.7684 20.5265 10.6627" fill="white"/>
<path d="M16.6927 16.3365C16.637 16.3532 16.5871 16.3854 16.5487 16.4292C16.5103 16.473 16.485 16.5267 16.4757 16.5842C16.4664 16.6417 16.4734 16.7006 16.496 16.7543C16.5186 16.808 16.5559 16.8542 16.6035 16.8877C13.6447 16.8877 9.1035 16.8345 8.13375 16.8345C7.587 16.8345 5.86575 16.7595 5.8335 16.7595C6.00464 17.0205 6.24553 17.2284 6.52882 17.3595C6.81211 17.4906 7.12647 17.5397 7.43625 17.5012C8.75175 17.5012 14.838 17.4855 16.5682 17.4855C16.5245 17.6034 16.5115 17.7305 16.5307 17.8548C16.5499 17.9791 16.6005 18.0965 16.6777 18.1957L16.6845 18.201C16.6854 18.2029 16.687 18.2044 16.6889 18.2053C16.6908 18.2063 16.6929 18.2066 16.695 18.2062H16.7002C16.8157 18.2385 16.866 18.1425 16.9065 18.0795C17.3487 18.1042 17.792 18.1024 18.234 18.0742C18.2992 18.18 18.3652 18.2805 18.4875 18.2647C18.7035 18.2115 18.873 18.1852 18.8805 17.6925C18.8805 17.6925 18.858 16.8547 18.3675 16.908C18.2512 16.9237 17.9265 16.9612 17.9265 16.9612C17.5515 16.9132 17.2717 16.908 16.8487 16.8862C16.8885 16.833 16.956 16.605 16.872 16.5255C16.8581 16.5138 16.8419 16.5049 16.8245 16.4995C16.8072 16.4941 16.7889 16.4922 16.7707 16.494H16.7625C16.7625 16.494 16.7557 16.4887 16.7535 16.4835V16.4782C16.7342 16.4317 16.7184 16.3838 16.7062 16.335H16.6965M16.8975 17.535C17.3265 17.556 17.7315 17.5402 18.165 17.5612C18.1914 17.597 18.2047 17.6407 18.2026 17.6851C18.2006 17.7295 18.1833 17.7718 18.1537 17.805C18.1537 17.8102 18.1485 17.8102 18.1477 17.8102H18.1357C17.9955 17.805 17.9152 17.805 17.775 17.7997C17.775 17.7892 17.7705 17.784 17.7705 17.7735C17.736 17.6617 17.4975 17.673 17.439 17.763V17.7682V17.7787V17.7892C17.4376 17.7944 17.4376 17.7998 17.439 17.805C17.255 17.8167 17.0703 17.8096 16.8877 17.784C16.8345 17.709 16.8405 17.5717 16.9057 17.535" fill="white"/>
<path d="M9.20761 6.47775C8.92036 7.3995 9.37411 8.41725 9.68761 8.322C9.91261 8.4225 10.0574 7.935 10.1519 7.40475C10.2164 7.25475 10.2636 7.2405 10.2966 7.31475C10.2869 8.025 10.3409 8.184 10.5029 8.39625C10.5463 8.4429 10.5987 8.48029 10.657 8.50617C10.7152 8.53205 10.7781 8.5459 10.8419 8.54688C10.9056 8.54786 10.9689 8.53596 11.0279 8.51188C11.0869 8.4878 11.1405 8.45204 11.1854 8.40675C11.2086 8.38575 11.4666 8.094 11.4666 8.094C11.4803 8.07627 11.4976 8.06174 11.5175 8.05142C11.5373 8.04109 11.5592 8.03523 11.5815 8.03423C11.6039 8.03323 11.6262 8.03712 11.6469 8.04563C11.6676 8.05414 11.6862 8.06706 11.7014 8.0835C11.7846 8.16825 11.7764 8.322 11.9579 8.4225C12.0537 8.45995 12.1587 8.46738 12.2589 8.44381C12.3591 8.42023 12.4497 8.36677 12.5189 8.2905C12.6224 8.094 12.6449 8.025 12.6921 7.95075C12.7671 7.83975 12.8916 7.88775 12.8916 7.9245C12.8804 7.98825 12.8099 8.04675 12.8556 8.15775C12.9456 8.23275 12.9659 8.184 13.0184 8.16825C13.2014 8.06775 13.3394 7.62225 13.3394 7.62225C13.3454 7.45275 13.2644 7.4685 13.2074 7.506C13.1391 7.55325 13.1324 7.56975 13.0634 7.617C12.9749 7.6275 12.8009 7.6965 12.7169 7.548C12.6276 7.368 12.6276 7.11375 12.5586 6.93375C12.5586 6.92325 12.4439 6.6525 12.5519 6.63375C12.6051 6.64425 12.7206 6.681 12.7401 6.57C12.7986 6.46425 12.6179 6.15675 12.4956 6.00825C12.4738 5.97627 12.4447 5.94985 12.4108 5.93109C12.3769 5.91234 12.3391 5.90177 12.3004 5.90024C12.2617 5.89871 12.2232 5.90626 12.188 5.92228C12.1527 5.9383 12.1217 5.96235 12.0974 5.9925C12.0263 6.0871 11.9888 6.2027 11.9909 6.321C11.975 6.39781 11.9752 6.47707 11.9916 6.55377C12.008 6.63046 12.0402 6.70291 12.0861 6.7665C12.257 7.03627 12.3359 7.35413 12.3111 7.6725C12.2821 7.72445 12.2396 7.76761 12.1881 7.79745C12.1367 7.82728 12.0781 7.84267 12.0186 7.842C11.9436 7.821 11.8161 7.7835 11.7486 7.23225C11.7645 6.79815 11.7155 6.3641 11.6031 5.9445C11.5454 5.775 11.5049 5.61075 11.3646 5.9025C11.3035 5.99432 11.2643 6.09893 11.25 6.20828C11.2357 6.31764 11.2467 6.42881 11.2821 6.53325C11.3899 6.84813 11.4208 7.18425 11.3721 7.5135C11.3243 7.60837 11.2681 7.69873 11.2041 7.7835C11.1636 7.83661 11.104 7.87186 11.0379 7.8818C10.9718 7.89174 10.9045 7.87558 10.8501 7.83675C10.7894 7.80251 10.7381 7.7539 10.7005 7.69519C10.663 7.63648 10.6405 7.56946 10.6349 7.5C10.6598 7.13749 10.648 6.77338 10.5996 6.41325C10.5141 6.2115 10.3694 6.28575 10.3094 6.34425C10.0278 6.69884 9.84445 7.1212 9.77761 7.569C9.69511 7.86525 9.60736 7.7805 9.54661 7.659C9.39661 7.50525 9.38761 6.27525 9.20761 6.477" fill="white"/>
<path d="M10.1797 8.39115C10.1797 8.3964 10.176 8.3964 10.1715 8.3964V8.40165C10.1527 8.41215 10.128 8.44965 10.0785 8.49165C10.0365 8.54797 10.0066 8.61233 9.99059 8.68072C9.97459 8.74911 9.97284 8.82006 9.98546 8.88915C9.98921 8.91615 10.143 9.3984 10.2765 9.74265C10.3883 10.1152 10.426 10.5061 10.3875 10.8931C10.173 11.3904 9.81362 11.8115 9.35621 12.1014C9.28948 12.1351 9.21574 12.1527 9.14096 12.1527C9.06618 12.1527 8.99245 12.1351 8.92571 12.1014V12.0961C8.88442 12.0639 8.85206 12.0216 8.83172 11.9733C8.81137 11.925 8.80371 11.8722 8.80946 11.8201C9.27039 11.5363 9.6326 11.1173 9.84671 10.6201C9.94784 10.3404 9.95756 10.0358 9.87446 9.75015C9.84851 9.60541 9.78805 9.46906 9.69821 9.35265C9.69821 9.35265 9.69821 9.35265 9.69821 9.3474C9.75596 9.3159 9.90521 9.44265 9.92996 9.36315C9.88658 9.13507 9.78301 8.92273 9.62996 8.74815C9.61009 8.71898 9.58388 8.69468 9.55329 8.67708C9.52269 8.65947 9.48852 8.64902 9.45331 8.64649C9.41811 8.64397 9.38279 8.64944 9.35 8.6625C9.31721 8.67556 9.28779 8.69586 9.26396 8.7219C9.14021 8.8014 9.11396 9.08265 9.17171 9.33165C9.23921 9.51165 9.42146 9.5439 9.55121 9.9144V9.91965C9.57595 10.0485 9.56822 10.1815 9.52871 10.3066C9.3086 10.613 9.0474 10.8875 8.75246 11.1226L8.74721 11.1279V11.1339H8.73896C8.73896 11.1279 8.73896 11.1279 8.73896 11.1279C8.74184 11.0874 8.74184 11.0468 8.73896 11.0064C8.73896 10.9006 8.77721 10.6456 8.77421 10.5984V10.5931C8.55296 10.7574 8.47421 11.2554 8.43596 11.4039C7.87212 11.7553 7.34453 12.1618 6.86096 12.6174C6.66746 12.9519 8.18921 12.2251 8.36096 12.1404C8.36096 12.1404 8.36546 12.1404 8.36771 12.1456C8.39988 12.2551 8.44548 12.3602 8.50346 12.4584C8.59229 12.5873 8.71895 12.6853 8.86593 12.7391C9.01292 12.7928 9.17297 12.7996 9.32396 12.7584C9.8236 12.5166 10.2377 12.1284 10.5112 11.6454C10.5562 11.5704 10.629 11.5126 10.6942 11.5704C10.8515 11.8781 11.093 12.1348 11.3906 12.3105C11.6882 12.4862 12.0296 12.5736 12.375 12.5626C12.5647 12.3024 12.4755 12.1704 12.3975 12.1224C12.3727 12.1014 11.9872 11.9319 11.9287 11.7624C11.892 11.6086 11.9812 11.4706 12.1665 11.3641C12.6943 11.3094 13.2146 11.1975 13.7182 11.0304C13.7363 10.8214 13.7941 10.6178 13.8885 10.4304C13.908 10.3879 13.9382 10.3512 13.9762 10.3239C13.9762 10.3239 13.9762 10.3239 13.9762 10.3186V10.3134C13.9768 10.3099 13.9768 10.3064 13.9762 10.3029L13.8885 10.2444L12.2025 10.2339C12.1856 10.2273 12.1697 10.2185 12.1552 10.2076V10.2024V10.1971V10.1919V10.1866V10.1814C12.1552 10.1761 12.1552 10.1761 12.1552 10.1761C12.1684 10.1582 12.1871 10.145 12.2085 10.1386C12.6135 10.0801 13.3275 9.94815 13.374 9.1689C13.3863 9.08112 13.3805 8.99174 13.357 8.90629C13.3334 8.82084 13.2925 8.74113 13.2369 8.67209C13.1813 8.60306 13.1121 8.54617 13.0337 8.50494C12.9552 8.46371 12.8691 8.43902 12.7807 8.4324C12.6119 8.4686 12.4637 8.56887 12.3673 8.71211C12.271 8.85535 12.2339 9.03039 12.264 9.2004C12.2497 9.30165 12.297 9.5079 12.2025 9.5289C11.5815 9.5979 10.905 10.0329 10.8802 10.3456H10.872L10.8675 10.3509H10.8592L10.8517 10.3456C10.82 10.3261 10.7951 10.2973 10.7803 10.263C10.7655 10.2288 10.7617 10.1909 10.7692 10.1544C10.7408 9.59018 10.5955 9.03801 10.3425 8.5329C10.257 8.4324 10.218 8.3949 10.1925 8.38965H10.182M12.6472 9.08415C12.6943 9.07931 12.7414 9.09243 12.7792 9.1209C12.8089 9.13593 12.8342 9.15855 12.8524 9.18647C12.8705 9.21439 12.881 9.24663 12.8827 9.2799V9.2904V9.29565V9.30015C12.8827 9.30015 12.8767 9.3054 12.8722 9.31065C12.8392 9.3474 12.7672 9.34215 12.6952 9.29415C12.6675 9.27893 12.6437 9.25744 12.6257 9.2314C12.6077 9.20536 12.5961 9.17548 12.5917 9.14415V9.13815C12.5917 9.12765 12.5962 9.1224 12.5992 9.1224L12.6037 9.1119C12.6037 9.10665 12.6037 9.10665 12.612 9.1014C12.6171 9.09617 12.6233 9.09207 12.6302 9.08936C12.637 9.08665 12.6444 9.08538 12.6517 9.08565M11.0835 10.6861H11.1C11.3324 10.7354 11.5684 10.7655 11.8057 10.7761C12.0015 10.7919 12.0982 10.9614 11.9152 11.0356C11.7322 11.1099 11.5605 11.1579 11.5605 11.4549C11.5852 11.5378 11.5852 11.6262 11.5605 11.7091C11.5605 11.7144 11.556 11.7196 11.553 11.7196V11.7249V11.7301H11.5477L11.5395 11.7354C11.539 11.7369 11.5381 11.7381 11.5369 11.7391C11.5357 11.74 11.5342 11.7406 11.5327 11.7406C11.4877 11.7459 11.4255 11.6934 11.3775 11.6716C11.2484 11.5829 11.1398 11.4674 11.0591 11.3331C10.9783 11.1988 10.9273 11.0488 10.9095 10.8931C10.9072 10.868 10.91 10.8426 10.9176 10.8186C10.9252 10.7945 10.9376 10.7722 10.9539 10.7529C10.9702 10.7337 10.9902 10.7178 11.0127 10.7064C11.0352 10.6949 11.0598 10.688 11.085 10.6861" fill="white"/>
<path d="M5.65495 6.48818C5.8507 6.58868 6.21445 6.54668 6.19945 6.19643C6.19945 6.16493 6.19345 6.05918 6.1912 6.03218C6.15295 5.92643 6.0412 5.94743 6.0187 6.05918C6.01045 6.09068 6.0307 6.14918 6.0037 6.17018C5.9767 6.19118 5.92495 6.17543 5.9287 6.08018C5.92679 6.04944 5.91583 6.01996 5.8972 5.99543C5.89137 5.98893 5.88395 5.98406 5.87566 5.98129C5.86738 5.97853 5.85851 5.97798 5.84995 5.97968C5.8237 5.98493 5.8237 5.99018 5.8117 6.01643C5.80238 6.04194 5.79732 6.06879 5.7967 6.09593C5.7922 6.13268 5.7787 6.14393 5.7562 6.14918C5.7337 6.15443 5.73895 6.15443 5.71645 6.13868C5.70595 6.12218 5.68795 6.11693 5.68795 6.09068C5.68746 6.06222 5.68445 6.03386 5.67895 6.00593C5.66678 5.99016 5.64958 5.97904 5.6302 5.97443C5.52295 5.97443 5.5162 6.11168 5.52295 6.16493C5.51395 6.17543 5.5102 6.41918 5.6542 6.48818" fill="white"/>
<path d="M11.3527 9.20175C11.547 9.303 12.009 9.2445 11.898 8.90175C11.8967 8.84683 11.8927 8.79201 11.886 8.7375C11.8477 8.63175 11.7405 8.658 11.7142 8.7645C11.7082 8.80125 11.7292 8.85975 11.7015 8.88075C11.6737 8.90175 11.622 8.88075 11.6265 8.7855C11.6245 8.75637 11.6135 8.72857 11.595 8.706C11.5893 8.70012 11.5824 8.69563 11.5747 8.6929C11.567 8.69017 11.5588 8.68926 11.5507 8.69025C11.5252 8.6955 11.5252 8.70075 11.5102 8.727C11.502 8.75276 11.4972 8.77949 11.496 8.8065C11.496 8.844 11.4802 8.8545 11.457 8.85975C11.4337 8.865 11.4405 8.865 11.418 8.84925C11.3955 8.8335 11.3895 8.82825 11.3895 8.80125C11.3905 8.77246 11.3861 8.74373 11.3767 8.7165C11.3657 8.70021 11.3487 8.6889 11.3295 8.685C11.2245 8.685 11.2185 8.82225 11.2222 8.8755C11.2162 8.88075 11.2117 9.1245 11.3557 9.19875" fill="white"/>
<path d="M14.6753 8.07828C14.8688 8.17878 15.234 8.13153 15.219 7.77828C15.219 7.75203 15.213 7.64628 15.2108 7.61403C15.1695 7.51353 15.0608 7.53453 15.0383 7.64628C15.0293 7.67778 15.0495 7.73628 15.021 7.75203C15.0068 7.77303 14.946 7.76253 14.946 7.66203C14.9422 7.63172 14.9315 7.6027 14.9145 7.57728C14.9009 7.57197 14.8862 7.57017 14.8718 7.57203C14.8463 7.57203 14.8463 7.57728 14.8305 7.60353C14.8218 7.631 14.8168 7.65949 14.8155 7.68828C14.8155 7.72053 14.8013 7.73103 14.7765 7.73628C14.7518 7.74153 14.7563 7.74153 14.739 7.72578C14.7307 7.72074 14.7237 7.71372 14.7188 7.70535C14.7138 7.69697 14.7109 7.68751 14.7105 7.67778C14.7096 7.6474 14.7053 7.61722 14.6978 7.58778C14.6837 7.57741 14.6676 7.57024 14.6505 7.56678C14.5448 7.56678 14.5358 7.70403 14.5433 7.75203C14.5358 7.76253 14.5313 8.00628 14.676 8.07528" fill="white"/>
<path d="M16.3948 10.8931C16.2785 11.0857 16.2079 11.3023 16.1882 11.5264C16.1686 11.7506 16.2005 11.9762 16.2815 12.1861C16.354 12.4081 16.5021 12.5976 16.7 12.7216C16.7292 12.7533 16.7655 12.7777 16.806 12.7926C16.8465 12.8075 16.8899 12.8126 16.9327 12.8074C16.9755 12.8022 17.0165 12.7868 17.0522 12.7627C17.0879 12.7385 17.1173 12.7061 17.138 12.6683C17.336 12.4351 17.3413 11.8471 17.4328 11.7301C17.5003 11.5126 17.663 11.5501 17.7425 11.6453C17.8147 11.7581 17.912 11.8525 18.0268 11.9213C18.0644 11.966 18.1106 12.0027 18.1626 12.0292C18.2146 12.0558 18.2714 12.0718 18.3296 12.0762C18.3879 12.0806 18.4464 12.0733 18.5018 12.0549C18.5572 12.0364 18.6084 12.0071 18.6523 11.9686C18.8171 11.8641 18.9363 11.7012 18.986 11.5126C19.0586 10.6206 19.0669 9.72451 19.0108 8.83133C19.001 8.76758 18.8188 7.72883 18.8188 7.71758C18.8188 7.70633 18.7925 7.18808 18.7738 7.06583C18.7693 7.01333 18.7588 6.99683 18.806 7.00283C18.8555 7.05533 18.86 7.06058 18.8915 7.07108C18.941 7.08233 18.986 6.98633 18.9568 6.89633C18.8068 6.57833 18.647 6.25508 18.4925 5.94233C18.4573 5.89508 18.4078 5.85233 18.347 5.94758C18.3103 5.98555 18.2815 6.03042 18.2622 6.07959C18.2429 6.12876 18.2335 6.18126 18.2345 6.23408C18.2488 6.45908 18.284 6.69533 18.2968 6.92333C18.359 7.30958 18.4205 7.70183 18.4828 8.09408C18.5405 8.92658 18.5578 9.68933 18.6148 10.5218C18.6281 10.8227 18.5589 11.1215 18.4145 11.3858C18.4145 11.3858 18.2788 11.4811 18.185 11.3806C18.0551 11.2224 17.941 11.0519 17.8445 10.8713C17.705 10.7288 17.612 10.7656 17.513 10.8713C17.2683 11.255 17.0735 11.6684 16.9333 12.1013C16.8838 12.1861 16.7495 12.2603 16.601 12.0961C16.4049 11.7287 16.3326 11.3079 16.3948 10.8961" fill="white"/>
<path d="M14.7629 6.03228C14.8578 6.11354 14.9309 6.21724 14.9756 6.33394C15.0203 6.45064 15.035 6.57665 15.0186 6.70053C14.9834 6.93903 14.8926 7.20378 14.8251 7.16703C14.7576 7.13028 14.8731 6.92853 14.8064 6.71103C14.7651 6.56778 14.5296 6.31353 14.5544 6.23403C14.5443 6.20522 14.5427 6.17413 14.5497 6.14442C14.5567 6.11472 14.5721 6.08766 14.5941 6.06643C14.616 6.04521 14.6436 6.03071 14.6735 6.02466C14.7034 6.0186 14.7344 6.02125 14.7629 6.03228Z" fill="white"/>
<path d="M16.9558 11.1316C16.9718 10.7812 16.9595 10.43 16.9191 10.0816C16.9086 9.80633 16.6401 7.53158 16.5831 7.32008C16.5171 6.92333 16.8463 7.26758 16.8081 7.03433C16.6956 6.74258 16.4128 6.31358 16.3251 6.05933C16.2688 5.94758 16.2921 5.85233 16.1751 6.03233C16.0724 6.35394 16.0359 6.693 16.0678 7.02908C16.4041 8.60444 16.583 10.2093 16.6018 11.8201C16.7361 11.8201 16.8913 11.4758 16.9588 11.1316" fill="white"/>
<path d="M19.1113 8.75936C19.274 8.85461 19.3655 9.34736 19.3483 9.49061C19.3175 9.75011 19.2335 10.0314 19.1728 9.99386C19.112 9.95636 19.1855 9.60761 19.154 9.50111C19.1158 9.34736 18.902 9.06686 18.9238 8.98211C18.8803 8.80661 19.0183 8.73311 19.1113 8.75711" fill="white"/>
<path d="M8.1343 10.2301C8.2843 10.2938 8.3743 10.6598 8.3593 10.7656C8.32855 10.9561 8.2483 11.1578 8.1913 11.1406C8.1343 11.1233 8.2048 10.8541 8.17255 10.7746C8.1613 10.5788 7.94755 10.4746 7.95505 10.3928C7.91455 10.2391 8.04055 10.2128 8.13655 10.2338" fill="white"/>
<path d="M4.07535 5.91085C4.30035 5.98585 4.31235 6.3556 4.30035 6.46735C4.2696 6.6631 4.18935 6.87535 4.13085 6.8491C4.07235 6.82285 4.13085 6.55735 4.09935 6.4741C4.0671 6.35185 3.87435 6.1456 3.89985 6.08185C3.85635 5.9491 3.9846 5.88535 4.0776 5.91235" fill="white"/>
<path d="M8.49962 7.65982C8.41154 7.72909 8.35029 7.82681 8.32634 7.93627C8.3024 8.04573 8.31726 8.16011 8.36837 8.25982C8.39795 8.30397 8.44114 8.33723 8.49137 8.35456C8.5416 8.37189 8.59612 8.37234 8.64662 8.35582C8.81537 8.38207 8.91512 8.00032 8.91512 8.00032C8.91512 8.00032 8.92037 7.89457 8.72237 8.09557C8.63687 8.11732 8.62637 8.07982 8.60462 8.02657C8.58465 7.92741 8.5935 7.82461 8.63012 7.73032C8.66087 7.63432 8.59637 7.59232 8.49962 7.66132" fill="white"/>
<path d="M9.78744 5.76753C9.71239 5.82851 9.6505 5.90409 9.60551 5.98969C9.56052 6.07529 9.53336 6.16913 9.52569 6.26553C9.51894 6.39303 9.49719 6.39303 9.57294 6.47778C9.62919 6.56778 9.68469 6.55728 9.79419 6.48828C9.82234 6.46855 9.84626 6.44339 9.86455 6.41428C9.88284 6.38517 9.89513 6.3527 9.90069 6.31878C9.92769 6.16878 9.76269 6.38778 9.74019 6.22353C9.70494 6.06978 9.80994 6.01128 9.91119 5.85753C9.91119 5.75703 9.91119 5.68803 9.78744 5.76753" fill="white"/>
<path d="M10.8278 5.97462C10.7865 6.16466 10.7614 6.35785 10.7528 6.55212C10.722 6.69537 10.8885 6.75837 10.9613 6.57312C11.0362 6.37113 11.0761 6.1578 11.079 5.94237C11.046 5.72487 10.914 5.73612 10.8278 5.97462" fill="white"/>
<path d="M17.3751 9.72163C17.3991 9.69988 18.2976 8.97913 18.2976 8.97913C18.3898 8.94238 18.3726 9.35413 18.3283 9.34513C18.0558 9.64783 17.7334 9.90152 17.3751 10.0951C17.3316 10.1274 17.2866 9.81463 17.3751 9.72463" fill="white"/>
<path d="M18.1963 9.71625C18.3568 9.80625 18.4213 10.3252 18.4018 10.4662C18.4078 10.7422 18.2518 10.9642 18.1873 10.9327C18.1228 10.9012 18.1941 10.5885 18.1633 10.4767C18.0938 10.3079 18.0435 10.1318 18.0133 9.95175C17.9683 9.77625 18.0988 9.681 18.1956 9.71325" fill="white"/>
<path d="M12.8421 11.9634C12.916 11.8695 13.002 11.7858 13.0979 11.7144C13.1267 11.6999 13.1597 11.6956 13.1913 11.7023C13.2229 11.709 13.2513 11.7262 13.2719 11.7511C13.2876 11.8471 13.2164 11.9424 13.2389 12.0744C13.2569 12.1276 13.2719 12.1914 13.3589 12.1651C13.4156 12.115 13.482 12.0769 13.5539 12.0531C13.6259 12.0294 13.7019 12.0206 13.7774 12.0271C13.8899 12.0271 13.8906 12.2386 13.8239 12.2386C13.6259 12.2931 13.4343 12.3685 13.2524 12.4636C13.2269 12.482 13.1951 12.4895 13.1641 12.4846C13.1331 12.4797 13.1052 12.4627 13.0866 12.4374C13.0692 12.4101 13.0587 12.379 13.0559 12.3467C13.0532 12.3144 13.0583 12.282 13.0709 12.2521C13.0784 12.1456 13.0401 12.0879 12.9599 12.0931C12.8999 12.1351 12.8481 12.1561 12.8181 12.0826C12.8076 12.0241 12.8031 11.9926 12.8421 11.9604" fill="white"/>
<path d="M19.1445 12.2444C19.17 12.2706 19.1843 12.3057 19.1843 12.3423C19.1843 12.3789 19.17 12.414 19.1445 12.4402C19.08 12.5092 19.0373 12.5407 18.9728 12.6097C18.9443 12.6682 18.9255 12.7529 19.0155 12.7792C19.1828 12.8324 19.5728 12.5542 19.5728 12.5407C19.5936 12.5217 19.6083 12.4969 19.6149 12.4695C19.6214 12.442 19.6195 12.4133 19.6095 12.3869C19.5728 12.3397 19.491 12.3659 19.4363 12.3659C19.4078 12.3659 19.3215 12.3449 19.3613 12.2654C19.3901 12.2181 19.4137 12.1678 19.4318 12.1154C19.4565 12.0464 19.437 12.0044 19.3388 11.9654C19.2593 11.9523 19.1782 11.9523 19.0988 11.9654C19.041 11.9812 19.0238 12.0134 19.0103 12.0877C19.014 12.2039 19.0785 12.1987 19.146 12.2467" fill="white"/>
</g>
<defs>
<clipPath id="clip0_181_3274">
<rect width="24" height="24" fill="white"/>
</clipPath>
</defs>
</svg>
