<svg width="24" height="24" viewBox="0 0 24 24" fill="none" xmlns="http://www.w3.org/2000/svg">
<path fill-rule="evenodd" clip-rule="evenodd" d="M12 0C18.6274 0 24 5.37257 24 12C24 18.6274 18.6274 24 12 24C5.37257 24 0 18.6274 0 12C0 5.37257 5.37257 0 12 0Z" fill="#32AB45"/>
<path fill-rule="evenodd" clip-rule="evenodd" d="M23.2443 7.8H0.755371C2.45785 3.244 6.84999 0 11.9999 0C17.1497 0 21.5418 3.244 23.2443 7.8V7.8Z" fill="#FBFBFB"/>
<path fill-rule="evenodd" clip-rule="evenodd" d="M11.9547 23.9999C6.82433 23.981 2.45285 20.7427 0.755371 16.2H23.2443C21.5469 20.7427 17.1755 23.981 12.0451 23.9999H11.9547Z" fill="#E92B2B"/>
</svg>
