<svg width="24" height="24" viewBox="0 0 24 24" fill="none" xmlns="http://www.w3.org/2000/svg">
<g clip-path="url(#clip0_181_3313)">
<path d="M12 24C18.6274 24 24 18.6274 24 12C24 5.37258 18.6274 0 12 0C5.37258 0 0 5.37258 0 12C0 18.6274 5.37258 24 12 24Z" fill="#F5F5F5"/>
<path fill-rule="evenodd" clip-rule="evenodd" d="M3.06291 3.99292L12.388 12.0001L3.06235 20.0065C1.09034 17.8058 -0.000103792 14.9547 7.40978e-09 11.9996C0.000103807 9.0446 1.09075 6.19355 3.06291 3.99292V3.99292Z" fill="#11457E"/>
<path fill-rule="evenodd" clip-rule="evenodd" d="M12.3881 12H24.0001C24.0001 5.37254 18.6275 6.98927e-06 12.0001 6.98927e-06C10.3132 -0.00181592 8.6449 0.352964 7.10471 1.04108C5.56451 1.7292 4.18717 2.73512 3.06299 3.99287L12.3881 12Z" fill="#F5F5F5"/>
<path fill-rule="evenodd" clip-rule="evenodd" d="M23.9999 12H12.3879L3.06226 20.0065C4.18644 21.2644 5.56385 22.2705 7.10415 22.9587C8.64445 23.647 10.3128 24.0018 11.9999 24C18.6273 24 23.9999 18.6274 23.9999 12Z" fill="#D7141A"/>
</g>
<defs>
<clipPath id="clip0_181_3313">
<rect width="24" height="24" fill="white"/>
</clipPath>
</defs>
</svg>
