<svg width="24" height="24" viewBox="0 0 24 24" fill="none" xmlns="http://www.w3.org/2000/svg">
<g clip-path="url(#clip0_181_3319)">
<path d="M12 24C18.6274 24 24 18.6274 24 12C24 5.37258 18.6274 0 12 0C5.37258 0 0 5.37258 0 12C0 18.6274 5.37258 24 12 24Z" fill="#F0F0F0"/>
<path fill-rule="evenodd" clip-rule="evenodd" d="M23.898 10.4347H9.39138V0.285333C10.2314 0.1 11.1041 0 12.0001 0C18.0974 0 23.1314 4.54667 23.898 10.4347V10.4347ZM6.26138 1.46667V10.4347H0.102051C0.600051 6.55467 2.96672 3.25667 6.26138 1.46667ZM6.26138 13.5653H0.102051C0.607384 17.4453 2.96605 20.7433 6.26205 22.5413V13.5653H6.26138ZM9.39138 23.7147V13.5653H9.39205H23.8987C23.1314 19.4533 18.0967 24 12.0001 24C11.1047 24 10.2314 23.9013 9.39138 23.7147V23.7147Z" fill="#D80027"/>
</g>
<defs>
<clipPath id="clip0_181_3319">
<rect width="24" height="24" fill="white"/>
</clipPath>
</defs>
</svg>
