<svg width="24" height="24" viewBox="0 0 24 24" fill="none" xmlns="http://www.w3.org/2000/svg">
<g clip-path="url(#clip0_181_3330)">
<path d="M4.46395 21.3358H19.5364C19.5383 21.3343 19.5398 21.3332 19.5416 21.3318H4.45898C4.4605 21.3333 4.46243 21.3345 4.46395 21.3358Z" fill="#3757A6"/>
<path d="M16.1569 5.31886H21.9692C21.2913 4.30972 20.4635 3.41047 19.5185 2.6499H15.2053C15.5862 3.41979 15.903 4.32416 16.1569 5.31886Z" fill="#EFECEC"/>
<path d="M16.8897 10.6563H23.9235C23.8203 9.73067 23.6118 8.83695 23.3107 7.9873H16.6621C16.7764 8.85265 16.8521 9.74926 16.8897 10.6563Z" fill="#EFECEC"/>
<path d="M16.6646 15.9942H23.3164C23.6165 15.1442 23.8239 14.2508 23.9256 13.3252H16.8904C16.8533 14.2322 16.7782 15.1287 16.6646 15.9942Z" fill="#EFECEC"/>
<path d="M15.2139 21.3316H19.5415C20.4819 20.5707 21.3057 19.6711 21.9802 18.6631H16.1612C15.9085 19.6571 15.5932 20.5612 15.2139 21.3316Z" fill="#EFECEC"/>
<path d="M14.8256 2.65001H19.5185C17.4611 0.993588 14.8474 0 12.0001 0H11.9997C11.9872 0 11.9749 0.000760012 11.9624 0.000760012C13.3241 0.00815746 14.0252 1.03093 14.8256 2.65001Z" fill="#3757A6"/>
<path d="M16.3413 7.9874H23.3103C22.9732 7.03698 22.5213 6.14153 21.9689 5.31885H15.8362C16.0493 6.15405 16.2178 7.05198 16.3413 7.9874Z" fill="#3757A6"/>
<path d="M23.9233 10.6565H16.5308C16.5677 11.5432 16.5681 12.4387 16.5315 13.3255H23.9254C23.9731 12.8899 23.9999 12.4484 23.9999 12.0002C23.9999 11.5459 23.9725 11.098 23.9233 10.6565Z" fill="#3757A6"/>
<path d="M15.7751 18.6633H21.9801C22.5307 17.8399 22.9811 16.9444 23.3164 15.9944H16.2784C16.1553 16.9297 15.9872 17.8278 15.7751 18.6633Z" fill="#3757A6"/>
<path d="M11.9624 23.9991C11.9749 23.9991 11.9872 23.9999 11.9997 23.9999C14.8551 23.9999 17.4759 23.0008 19.5361 21.3357H14.8574C14.0563 22.9625 13.3279 23.9917 11.9624 23.9991Z" fill="#3757A6"/>
<path d="M15.2052 2.64998C14.4047 1.0309 13.3242 0.00812987 11.9624 0.000732422C9.12991 0.00964989 6.53011 1.0006 4.48193 2.64998H15.2052Z" fill="#4166AF"/>
<path d="M15.2054 2.6499H4.48193C3.53719 3.41042 2.70938 4.30967 2.03125 5.31881H16.1568C15.9031 4.32411 15.5863 3.41974 15.2054 2.6499Z" fill="#EFEFEF"/>
<path d="M16.1569 5.31885H2.03141C1.47888 6.14153 1.02703 7.03698 0.689941 7.9874H16.6621C16.5384 7.05198 16.3697 6.15405 16.1569 5.31885Z" fill="#4166AF"/>
<path d="M0.68992 7.98755C0.388652 8.83719 0.180409 9.73091 0.0771484 10.6565H16.8896C16.8523 9.74951 16.7763 8.8527 16.6621 7.98755H0.68992V7.98755Z" fill="#EFEFEF"/>
<path d="M0 11.9999V12.0002C0 12.4483 0.0267017 12.8898 0.0748358 13.3255H16.8903C16.9269 12.4387 16.9265 11.5433 16.8896 10.6565H0.0769132C0.0278671 11.098 0 11.5459 0 11.9999Z" fill="#4166AF"/>
<path d="M0.683923 15.9944H16.6646C16.7783 15.1289 16.8533 14.2325 16.8903 13.3254H0.0749512C0.176337 14.2511 0.38382 15.1445 0.683923 15.9944Z" fill="#EFEFEF"/>
<path d="M2.02019 18.6633H16.1613C16.3733 17.8278 16.5414 16.9297 16.6645 15.9944H0.683838C1.01921 16.9444 1.46923 17.8399 2.02019 18.6633Z" fill="#4166AF"/>
<path d="M2.02026 18.6633C2.6946 19.6714 3.51825 20.571 4.45899 21.3319H15.214C15.5933 20.5615 15.9086 19.6573 16.1613 18.6633H2.02026Z" fill="#EFEFEF"/>
<path d="M11.9625 23.9991C13.328 23.9917 14.4109 22.9625 15.212 21.3357H4.46387C6.51509 22.9934 9.12188 23.9902 11.9625 23.9991Z" fill="#4166AF"/>
<path d="M11.9998 0C5.37293 0 0.000354672 5.37237 0 11.9998L0.0748358 13.3254H12.0002L11.9998 0Z" fill="#3757A6"/>
<path d="M5.0145 2.24609C3.84317 3.08662 2.82815 4.13077 2.02441 5.32976H5.0145V2.24609Z" fill="#3757A6"/>
<path d="M0.692725 7.97852C0.245737 9.23603 0 10.5891 0 11.9997L0.0748358 13.3253H5.01445V7.97852H0.692725Z" fill="#3757A6"/>
<path d="M12.0002 5.32971L11.9999 0C10.4704 0 9.0086 0.289311 7.66333 0.811135V5.32971H12.0002Z" fill="#3757A6"/>
<path d="M12 7.97803H7.66333V13.325H12V7.97803Z" fill="#3757A6"/>
<path d="M7.66324 5.32961V0.811035C6.71586 1.17842 5.82741 1.66215 5.0144 2.24573V5.32946H2.02431C1.4769 6.14687 1.02804 7.03548 0.692871 7.9783H5.0146V13.3251V13.4198H7.66344V13.3251V7.9785H12.0003V5.32961H7.66324Z" fill="#EFEFEF"/>
</g>
<defs>
<clipPath id="clip0_181_3330">
<rect width="24" height="24" fill="white"/>
</clipPath>
</defs>
</svg>
