<svg width="24" height="24" viewBox="0 0 24 24" fill="none" xmlns="http://www.w3.org/2000/svg">
<g clip-path="url(#clip0_181_3363)">
<path d="M12 24C18.6274 24 24 18.6274 24 12C24 5.37258 18.6274 0 12 0C5.37258 0 0 5.37258 0 12C0 18.6274 5.37258 24 12 24Z" fill="#F0F0F0"/>
<path d="M0 12C0 5.37263 5.37262 0 12 0C18.6274 0 24 5.37263 24 12" fill="#D80027"/>
<path d="M12 24V0C21.6 0 24 8 24 12C24 16 21.6 24 12 24Z" fill="white"/>
<path d="M23.5866 8.86953C23.1728 7.334 22.4619 5.92048 21.5194 4.69409L17.344 8.86953H23.5866Z" fill="#0052B4"/>
<path d="M19.3058 2.48061C18.0794 1.538 16.6659 0.827236 15.1304 0.41333V6.656L19.3058 2.48061Z" fill="#0052B4"/>
<path d="M15.1304 23.5866C16.6659 23.1727 18.0794 22.4619 19.3058 21.5194L15.1304 17.344V23.5866Z" fill="#0052B4"/>
<path d="M17.344 15.1304L21.5194 19.3058C22.4619 18.0795 23.1728 16.6659 23.5866 15.1304H17.344Z" fill="#0052B4"/>
<path d="M23.8984 10.4348H13.5653L13.5653 0.101578C13.0529 0.034875 12.5305 0 12 0C11.4694 0 10.9472 0.034875 10.4348 0.101578L11.4348 10.4347L11.1016 10.4347C11.0349 10.9471 11 11.4695 11 12C11 12.5306 11.0349 13.0529 11.1016 13.5652H11.4347L11.4348 23.8984C11.9472 23.9651 11.4694 24 12 24C12.5305 24 13.0529 23.9652 13.5652 23.8984V13.5653L23.8984 13.5653C23.9651 13.0529 24 12.5306 24 12C24 11.4695 23.9651 10.9471 23.8984 10.4348Z" fill="#D80027"/>
<path d="M15.1304 15.1304L20.4852 20.4852C20.7315 20.239 20.9664 19.9817 21.1906 19.7148L16.6061 15.1304H15.1304V15.1304Z" fill="#D80027"/>
<path d="M15.1304 8.86956L20.4852 3.51465C20.239 3.26837 19.9817 3.03344 19.7148 2.80933L15.1304 7.39384V8.86956Z" fill="#D80027"/>
<path d="M4.79183 6.45648C4.79183 5.28051 5.61829 4.29814 6.72193 4.0571C6.5523 4.02008 6.37634 4 6.19552 4C4.8388 4 3.73901 5.09979 3.73901 6.45651C3.73901 7.81323 4.8388 8.91302 6.19552 8.91302C6.37628 8.91302 6.55227 8.89293 6.72193 8.85589C5.61829 8.61485 4.79183 7.63247 4.79183 6.45648Z" fill="#F0F0F0"/>
<path d="M7.95012 4.17554L8.12435 4.71169H8.68812L8.23199 5.04309L8.40622 5.57923L7.95012 5.2479L7.49403 5.57923L7.66825 5.04309L7.21216 4.71169H7.77589L7.95012 4.17554Z" fill="#F0F0F0"/>
<path d="M6.58251 5.22827L6.75671 5.76445H7.32047L6.86438 6.09582L7.03861 6.63197L6.58251 6.30063L6.12635 6.63197L6.30061 6.09582L5.84448 5.76445H6.40825L6.58251 5.22827Z" fill="#F0F0F0"/>
<path d="M9.3178 5.22827L9.49206 5.76445H10.0558L9.59967 6.09582L9.77393 6.63197L9.3178 6.30063L8.8617 6.63197L9.03593 6.09582L8.57983 5.76445H9.14357L9.3178 5.22827Z" fill="#F0F0F0"/>
<path d="M8.79143 6.80737L8.96566 7.34355H9.5294L9.0733 7.67492L9.24753 8.21107L8.79143 7.87973L8.33533 8.21107L8.50956 7.67492L8.05347 7.34355H8.61717L8.79143 6.80737Z" fill="#F0F0F0"/>
<path d="M7.10909 6.80737L7.28329 7.34355H7.84709L7.39096 7.67492L7.56522 8.21107L7.10909 7.87973L6.65296 8.21107L6.82719 7.67492L6.37109 7.34355H6.93486L7.10909 6.80737Z" fill="#F0F0F0"/>
<path d="M10 12H12V24V24C10.8954 24 10 23.1046 10 22V12Z" fill="#F0F0F0"/>
</g>
<defs>
<clipPath id="clip0_181_3363">
<rect width="24" height="24" fill="white"/>
</clipPath>
</defs>
</svg>
