<svg width="24" height="24" viewBox="0 0 24 24" fill="none" xmlns="http://www.w3.org/2000/svg">
<g clip-path="url(#clip0_181_3383)">
<path d="M0 12.0001C0 13.4679 0.264047 14.874 0.746391 16.174L12 17.2175L23.2536 16.174C23.736 14.874 24 13.4679 24 12.0001C24 10.5322 23.736 9.12618 23.2536 7.8262L12 6.78271L0.746391 7.8262C0.264047 9.12618 0 10.5322 0 12.0001H0Z" fill="#FFDA44"/>
<path d="M23.2536 7.82611C21.558 3.25655 17.1595 0 11.9999 0C6.84037 0 2.44185 3.25655 0.746338 7.82611H23.2536Z" fill="#D80027"/>
<path d="M0.746338 16.1738C2.44185 20.7434 6.84037 23.9999 11.9999 23.9999C17.1595 23.9999 21.558 20.7434 23.2536 16.1738H0.746338Z" fill="#D80027"/>
<path d="M5.2273 11.0518H7.79511L7.79817 12.9106C7.79934 13.6186 7.18398 14.1925 6.42634 14.1925C5.71725 14.1471 5.18179 13.5732 5.23035 12.9106L5.2273 11.0518Z" fill="white"/>
<path d="M5.22729 11.0518H6.51122V12.3684H5.22729V11.0518Z" fill="#D40000"/>
<path d="M6.51123 11.0518H7.79516V12.3684H6.51123V11.0518Z" fill="white"/>
<path d="M5.22754 12.3684L5.23055 12.9106V13.0781C5.26093 13.4839 5.50786 13.8398 5.87107 14.0354C6.23506 13.84 6.48302 13.4845 6.51344 13.0781L6.51042 12.3684H5.22754Z" fill="#D40000"/>
<path d="M6.51221 12.3684C6.51461 12.605 6.51422 12.8415 6.51522 13.0781C6.54461 13.4707 6.77641 13.8172 7.12036 14.0164C7.51631 13.7945 7.78042 13.4174 7.79811 12.943C7.7976 12.7546 7.79609 12.5593 7.79509 12.3684L6.51221 12.3684Z" fill="#D40000"/>
<path d="M5.473 11.3254H6.26551C6.29241 11.3254 6.31821 11.3394 6.33723 11.3644C6.35625 11.3893 6.36693 11.4231 6.36693 11.4584V11.9619C6.36693 11.9793 6.36431 11.9966 6.35921 12.0128C6.35412 12.0289 6.34664 12.0435 6.33723 12.0559C6.32781 12.0682 6.31663 12.078 6.30432 12.0847C6.29202 12.0914 6.27883 12.0948 6.26551 12.0948H5.473C5.45968 12.0948 5.44649 12.0914 5.43419 12.0847C5.42189 12.078 5.4107 12.0682 5.40129 12.0559C5.39187 12.0435 5.3844 12.0289 5.3793 12.0128C5.37421 11.9966 5.37158 11.9793 5.37158 11.9619V11.4584C5.37158 11.4231 5.38227 11.3893 5.40129 11.3644C5.42031 11.3395 5.4461 11.3254 5.473 11.3254V11.3254Z" fill="#FFCC00"/>
<path d="M5.66357 12.0948H6.07425L6.07474 11.7975C6.07492 11.6843 5.97651 11.5925 5.85534 11.5925C5.74194 11.5998 5.65629 11.6916 5.66407 11.7975L5.66357 12.0948Z" fill="#0044AA"/>
<path d="M3.67403 13.8696H4.75843C4.76814 13.8696 4.77776 13.8715 4.78673 13.8753C4.7957 13.879 4.80385 13.8844 4.81072 13.8913C4.81758 13.8981 4.82303 13.9063 4.82674 13.9153C4.83046 13.9242 4.83237 13.9339 4.83237 13.9436V14.1346C4.83237 14.1443 4.83046 14.1539 4.82674 14.1629C4.82303 14.1718 4.81758 14.18 4.81072 14.1869C4.80385 14.1937 4.7957 14.1992 4.78673 14.2029C4.77776 14.2066 4.76814 14.2085 4.75843 14.2085H3.67403C3.66433 14.2085 3.65471 14.2066 3.64574 14.2029C3.63677 14.1992 3.62862 14.1937 3.62175 14.1869C3.61489 14.18 3.60944 14.1718 3.60573 14.1629C3.60201 14.1539 3.6001 14.1443 3.6001 14.1346V13.9436C3.6001 13.9339 3.60201 13.9242 3.60573 13.9153C3.60944 13.9063 3.61489 13.8981 3.62175 13.8913C3.62862 13.8844 3.63677 13.879 3.64574 13.8753C3.65471 13.8715 3.66433 13.8696 3.67403 13.8696V13.8696Z" fill="#0044AA"/>
<path d="M3.85879 13.6479H4.57351C4.58241 13.6479 4.59122 13.6497 4.59945 13.6531C4.60767 13.6565 4.61514 13.6615 4.62143 13.6678C4.62773 13.6741 4.63272 13.6816 4.63613 13.6898C4.63953 13.698 4.64128 13.7068 4.64128 13.7157V13.8698H3.79102V13.7157C3.79102 13.7068 3.79277 13.698 3.79618 13.6898C3.79958 13.6816 3.80457 13.6741 3.81087 13.6678C3.81716 13.6615 3.82463 13.6565 3.83285 13.6531C3.84108 13.6497 3.84989 13.6479 3.85879 13.6479V13.6479Z" fill="#FFE680"/>
<path d="M4.52858 11.0532H3.90527V13.6487H4.52858V11.0532Z" fill="white"/>
<path d="M4.20773 10.5974C4.03984 10.6017 3.90527 10.7391 3.90527 10.908V11.0531H4.52858V10.908C4.5102 10.658 4.33825 10.587 4.20773 10.5974H4.20773Z" fill="#D40000"/>
<path d="M7.09266 11.2559H7.21388C7.35556 11.2559 7.46963 11.3621 7.46963 11.494V11.926C7.46963 12.0579 7.35556 12.1641 7.21388 12.1641H7.09266C6.95098 12.1641 6.83691 12.0579 6.83691 11.926V11.494C6.83691 11.3621 6.95098 11.2559 7.09266 11.2559V11.2559Z" fill="#D40000"/>
<path d="M5.51596 10.802H7.56345L7.86947 9.6001L7.20554 10.1158L6.52303 9.6001L5.84886 10.1158L5.15625 9.6001L5.51596 10.802Z" fill="#D40000"/>
<path d="M6.79468 12.4814H7.5703L7.57123 13.1201C7.57158 13.3634 7.38571 13.5606 7.15686 13.5606C6.94268 13.545 6.78094 13.3478 6.7956 13.1201L6.79468 12.4814Z" fill="#FFCC00"/>
<path d="M8.26681 13.8696H9.35121C9.36092 13.8696 9.37053 13.8715 9.3795 13.8753C9.38847 13.879 9.39662 13.8844 9.40349 13.8913C9.41035 13.8981 9.4158 13.9063 9.41952 13.9153C9.42323 13.9242 9.42514 13.9339 9.42514 13.9436V14.1346C9.42514 14.1443 9.42323 14.1539 9.41952 14.1629C9.4158 14.1718 9.41035 14.18 9.40349 14.1869C9.39662 14.1937 9.38847 14.1992 9.3795 14.2029C9.37053 14.2066 9.36092 14.2085 9.35121 14.2085H8.26681C8.2571 14.2085 8.24748 14.2066 8.23851 14.2029C8.22954 14.1992 8.22139 14.1937 8.21453 14.1869C8.20766 14.18 8.20221 14.1718 8.1985 14.1629C8.19478 14.1539 8.19287 14.1443 8.19287 14.1346V13.9436C8.19287 13.9339 8.19478 13.9242 8.1985 13.9153C8.20221 13.9063 8.20766 13.8981 8.21453 13.8913C8.22139 13.8844 8.22954 13.879 8.23851 13.8753C8.24748 13.8715 8.2571 13.8696 8.26681 13.8696V13.8696Z" fill="#0044AA"/>
<path d="M8.45156 13.6479H9.16628C9.17518 13.6479 9.184 13.6497 9.19222 13.6531C9.20044 13.6565 9.20791 13.6615 9.21421 13.6678C9.2205 13.6741 9.22549 13.6816 9.2289 13.6898C9.2323 13.698 9.23406 13.7068 9.23406 13.7157V13.8698H8.38379V13.7157C8.38379 13.7068 8.38554 13.698 8.38895 13.6898C8.39235 13.6816 8.39735 13.6741 8.40364 13.6678C8.40993 13.6615 8.41741 13.6565 8.42563 13.6531C8.43385 13.6497 8.44266 13.6479 8.45156 13.6479V13.6479Z" fill="#FFE680"/>
<path d="M9.12063 11.0532H8.49731V13.6487H9.12063V11.0532Z" fill="white"/>
<path d="M5.22729 12.3694L5.23137 12.9109V13.0785C5.24541 13.2661 5.30433 13.4423 5.40099 13.5976V12.3694H5.22729Z" fill="#FFE680"/>
<path d="M6.33691 12.3694V13.6058C6.42969 13.4594 6.49141 13.2917 6.51062 13.1153V12.3694H6.33691Z" fill="#FFE680"/>
<path d="M5.96704 12.3694V13.9777C6.02958 13.9369 6.08718 13.891 6.14075 13.8408V12.3694H5.96704Z" fill="#FFE680"/>
<path d="M5.59717 12.3694V13.8367C5.65024 13.8872 5.7088 13.9325 5.77088 13.9736V12.3694L5.59717 12.3694Z" fill="#FFE680"/>
<path d="M6.15503 12.1812H6.87214L6.873 12.7003C6.87332 12.898 6.70147 13.0583 6.48989 13.0583C6.29186 13.0456 6.14232 12.8853 6.15588 12.7003L6.15503 12.1812Z" fill="#D40000"/>
<path d="M6.23193 12.2751H6.79555L6.79622 12.6832C6.79648 12.8385 6.66141 12.9645 6.49511 12.9645C6.33948 12.9545 6.22194 12.8286 6.23261 12.6832L6.23193 12.2751Z" fill="#0044AA"/>
<path d="M8.79977 10.5974C8.63188 10.6017 8.49731 10.7391 8.49731 10.908V11.0531H9.12063V10.908C9.10224 10.658 8.93029 10.587 8.79977 10.5974V10.5974Z" fill="#D40000"/>
</g>
<defs>
<clipPath id="clip0_181_3383">
<rect width="24" height="24" fill="white"/>
</clipPath>
</defs>
</svg>
