<svg width="24" height="24" viewBox="0 0 24 24" fill="none" xmlns="http://www.w3.org/2000/svg">
<g clip-path="url(#clip0_181_3417)">
<path d="M12 24C18.6274 24 24 18.6274 24 12C24 5.37258 18.6274 0 12 0C5.37258 0 0 5.37258 0 12C0 18.6274 5.37258 24 12 24Z" fill="#F5F5F5"/>
<path fill-rule="evenodd" clip-rule="evenodd" d="M9.73331 10.0001V0.214844C8.31724 0.485546 6.96199 1.01078 5.73333 1.76505V10.0001H0.166828C-0.0556093 11.3242 -0.0556093 12.6761 0.166828 14.0001H5.73333V22.2352C6.96199 22.9895 8.31724 23.5147 9.73331 23.7854V14.0001H23.8333C24.0557 12.6761 24.0557 11.3242 23.8333 10.0001H9.73331Z" fill="#2E52B2"/>
</g>
<defs>
<clipPath id="clip0_181_3417">
<rect width="24" height="24" fill="white"/>
</clipPath>
</defs>
</svg>
