<svg width="24" height="24" viewBox="0 0 24 24" fill="none" xmlns="http://www.w3.org/2000/svg">
<g clip-path="url(#clip0_181_3267)">
<path d="M20.6896 3.72737L19.4481 4.55499L17.379 4.14118L16.1375 3.72737L14.4822 4.14118L13.2407 3.72737L14.0683 2.07207H15.7236L17.3459 1.26099C18.5969 1.87964 19.7287 2.71472 20.6896 3.72737Z" fill="#03AA6F"/>
<path d="M11.1715 2.07217L10.7577 3.31365L9.51624 3.72747L8.27475 5.79658L6.20564 7.03807L3.3089 7.45188V8.69337L4.13652 9.52099V11.1763L2.89513 10.3486L1.65364 9.52099L0.933594 7.35672C2.17297 4.40322 4.54213 2.06842 7.51336 0.87207L8.68861 1.65835L11.1715 2.07217Z" fill="#03AA6F"/>
<path d="M11.9991 13.6592L11.5853 15.7283L9.92999 17.3836V18.6251L8.27469 19.8666V21.9357L7.03325 21.5219L6.20558 19.4528V15.3145L4.13646 14.9007L3.30884 13.2454V12.0039L4.13646 11.1763L5.37795 9.93481L6.20558 11.5901H9.10232L10.3438 13.6592H11.9991Z" fill="#03AA6F"/>
<path d="M22.4689 6.13993C24.728 10.1702 24.4706 15.1398 21.8068 18.9146L20.6895 17.7973V16.142L19.8619 14.4867L19.0342 12.8314V11.1761L17.7928 10.3485L16.1375 10.7623L13.2407 9.5208L12.8269 6.62406L14.0684 5.38257H16.5513L17.3789 6.62406L19.8619 7.03787L22.3448 6.21024L22.4689 6.13993Z" fill="#03AA6F"/>
<path d="M14.4821 4.14133L16.1374 3.72751L17.3789 4.14133L19.448 4.55514L20.6895 3.72751C21.3826 4.45295 21.9806 5.26361 22.4689 6.14008L22.3448 6.21044L19.8619 7.03807L17.3789 6.62425L16.5513 5.38277H14.0684L12.8269 6.62425L13.2407 9.52099L16.1375 10.7625L17.7928 10.3487L19.0342 11.1763V12.8316L19.8619 14.4869L20.6895 16.1422V17.7975L21.8068 18.9148C17.9852 24.3301 10.497 25.6217 5.08215 21.8C0.483328 18.5539 -1.24191 12.5481 0.933563 7.35672L1.65361 9.52099L2.8951 10.3486L4.13658 11.1762L3.30891 12.0039V13.2454L4.13654 14.9007L6.20565 15.3145V19.4527L7.03328 21.5219L8.27477 21.9357V19.8666L9.93007 18.6251V17.3836L11.5854 15.7283L11.9992 13.6592H10.3439L9.10239 11.5901H6.20565L5.37803 9.93476L4.13658 11.1762L4.13654 9.52095L3.30891 8.69337V7.45188L6.20565 7.03807L8.27477 5.79658L9.51625 3.72747L10.7577 3.31365L11.1716 2.07217L8.68862 1.65835L7.51337 0.872072C10.6957 -0.40954 14.2744 -0.268024 17.3458 1.26109L15.7236 2.07217H14.0683L13.2407 3.72747L14.4821 4.14133Z" fill="#86DAF1"/>
</g>
<defs>
<clipPath id="clip0_181_3267">
<rect width="24" height="24" fill="white"/>
</clipPath>
</defs>
</svg>
