<svg width="24" height="24" viewBox="0 0 24 24" fill="none" xmlns="http://www.w3.org/2000/svg">
<g clip-path="url(#clip0_181_3424)">
<path d="M12 24C18.6274 24 24 18.6274 24 12C24 5.37258 18.6274 0 12 0C5.37258 0 0 5.37258 0 12C0 18.6274 5.37258 24 12 24Z" fill="#F0F0F0"/>
<path d="M16.5183 9.39116H13.506L11.9999 6.78247L10.4938 9.39116H7.48145L8.98773 11.9998L7.48145 14.6085H10.4938L11.9999 17.2172L13.506 14.6085H16.5183L15.012 11.9998L16.5183 9.39116ZM13.8503 11.9998L12.9251 13.6024H11.0747L10.1495 11.9998L11.0747 10.3973H12.9251L13.8503 11.9998ZM11.9999 8.79467L12.3442 9.39111H11.6556L11.9999 8.79467ZM9.22421 10.3973H9.9129L9.56856 10.9937L9.22421 10.3973ZM9.22421 13.6024L9.5686 13.006L9.91295 13.6024H9.22421ZM11.9999 15.205L11.6556 14.6085H12.3442L11.9999 15.205ZM14.7755 13.6024H14.0868L14.4312 13.006L14.7755 13.6024ZM14.0868 10.3973H14.7755L14.4312 10.9937L14.0868 10.3973Z" fill="#0052B4"/>
<path d="M19.4698 2.60864H4.53009C3.43495 3.48089 2.49576 4.54036 1.76123 5.7391H22.2387C21.5041 4.54041 20.5649 3.48089 19.4698 2.60864V2.60864Z" fill="#0052B4"/>
<path d="M4.53009 21.3912H19.4698C20.5649 20.5189 21.5041 19.4595 22.2386 18.2607H1.76123C2.49581 19.4594 3.435 20.5189 4.53009 21.3912V21.3912Z" fill="#0052B4"/>
</g>
<defs>
<clipPath id="clip0_181_3424">
<rect width="24" height="24" fill="white"/>
</clipPath>
</defs>
</svg>
