<svg width="24" height="24" viewBox="0 0 24 24" fill="none" xmlns="http://www.w3.org/2000/svg">
<g clip-path="url(#clip0_181_3507)">
<path d="M12 24C18.6274 24 24 18.6274 24 12C24 5.37258 18.6274 0 12 0C5.37258 0 0 5.37258 0 12C0 18.6274 5.37258 24 12 24Z" fill="#009B3A"/>
<path d="M2 12.0001L12 18.4001L22 12.0001L12 5.6001L2 12.0001Z" fill="#FEDF00"/>
<path d="M12 16.24C14.3417 16.24 16.24 14.3417 16.24 12C16.24 9.65832 14.3417 7.76001 12 7.76001C9.65832 7.76001 7.76001 9.65832 7.76001 12C7.76001 14.3417 9.65832 16.24 12 16.24Z" fill="#002776"/>
<path d="M8.15992 10.3201C8.07992 10.5601 7.99992 10.7201 7.91992 10.9601C10.8799 10.4801 13.8399 11.2801 16.0799 13.2801C16.1599 13.0401 16.1599 12.8001 16.2399 12.6401C13.9199 10.7201 11.0399 9.9201 8.15992 10.3201Z" fill="white"/>
</g>
<defs>
<clipPath id="clip0_181_3507">
<rect width="24" height="24" fill="white"/>
</clipPath>
</defs>
</svg>
