<svg width="24" height="24" viewBox="0 0 24 24" fill="none" xmlns="http://www.w3.org/2000/svg">
<g clip-path="url(#clip0_181_3508)">
<path fill-rule="evenodd" clip-rule="evenodd" d="M24 12C24 18.6274 18.6274 24 12 24C5.37257 24 0 18.6274 0 12C0 5.37257 5.37257 0 12 0C18.6274 0 24 5.37257 24 12Z" fill="#E92B2B"/>
<path fill-rule="evenodd" clip-rule="evenodd" d="M8.57143 23.5029C3.61459 22.0278 0 17.4359 0 11.9999C0 6.56388 3.61459 1.97205 8.57143 0.496826V23.5029Z" fill="#32AB45"/>
<path fill-rule="evenodd" clip-rule="evenodd" d="M8.57139 9.42868C7.15122 9.42868 5.99997 10.5799 5.99997 12.0001C5.99997 13.4203 7.15122 14.5715 8.57139 14.5715C9.99157 14.5715 11.1428 13.4203 11.1428 12.0001C11.1428 10.5799 9.99157 9.42868 8.57139 9.42868ZM5.14282 12.0001C5.14282 10.1066 6.67786 8.57153 8.57139 8.57153C10.4649 8.57153 12 10.1066 12 12.0001C12 13.8936 10.4649 15.4287 8.57139 15.4287C6.67786 15.4287 5.14282 13.8936 5.14282 12.0001Z" fill="#FFE70E"/>
<path fill-rule="evenodd" clip-rule="evenodd" d="M10.4112 14.446L6.12549 10.1603L6.73154 9.5542L11.0173 13.8399L10.4112 14.446Z" fill="#FFE70E"/>
<path fill-rule="evenodd" clip-rule="evenodd" d="M8.14282 15.0304V8.96948H8.99997V15.0304H8.14282Z" fill="#FFE70E"/>
<path fill-rule="evenodd" clip-rule="evenodd" d="M5.5708 11.6021H11.6317V12.4592H5.5708V11.6021Z" fill="#FFE70E"/>
<path fill-rule="evenodd" clip-rule="evenodd" d="M6.73154 14.446L11.0173 10.1603L10.4112 9.5542L6.12549 13.8399L6.73154 14.446Z" fill="#FFE70E"/>
<path d="M9.85718 10.2856H7.28575C7.04907 10.2856 6.85718 10.4775 6.85718 10.7142V12.4285C6.85718 13.3753 7.6247 14.1428 8.57146 14.1428C9.51823 14.1428 10.2857 13.3753 10.2857 12.4285V10.7142C10.2857 10.4775 10.0939 10.2856 9.85718 10.2856Z" fill="#E92B2B"/>
<path d="M9.42864 11.1428H7.71436V12.4285C7.71436 12.9019 8.09809 13.2857 8.5715 13.2857C9.04491 13.2857 9.42864 12.9019 9.42864 12.4285V11.1428Z" fill="#FBFBFB"/>
</g>
<defs>
<clipPath id="clip0_181_3508">
<rect width="24" height="24" fill="white"/>
</clipPath>
</defs>
</svg>
