<svg width="24" height="24" viewBox="0 0 24 24" fill="none" xmlns="http://www.w3.org/2000/svg">
<g clip-path="url(#clip0_181_3528)">
<path d="M12 24C18.6274 24 24 18.6274 24 12C24 5.37258 18.6274 0 12 0C5.37258 0 0 5.37258 0 12C0 18.6274 5.37258 24 12 24Z" fill="#F0F0F0"/>
<path d="M12 24.0001C18.6274 24.0001 24 18.6274 24 12.0001C24 10.5322 23.736 9.12611 23.2536 7.82617H0.746391C0.264047 9.12611 0 10.5322 0 12.0001C0 18.6274 5.37262 24.0001 12 24.0001Z" fill="#0052B4"/>
<path d="M11.9999 23.9999C17.1595 23.9999 21.558 20.7434 23.2536 16.1738H0.746338C2.44185 20.7434 6.84037 23.9999 11.9999 23.9999Z" fill="#D80027"/>
<path d="M3.10303 6.78271V12.7689C3.10303 16.1741 7.55151 17.2175 7.55151 17.2175C7.55151 17.2175 11.9999 16.1741 11.9999 12.7689V6.78271H3.10303Z" fill="#F0F0F0"/>
<path d="M4.14648 6.78271V12.7689C4.14648 13.1687 4.23527 13.5462 4.41114 13.9002H10.6918C10.8677 13.5463 10.9564 13.1687 10.9564 12.7689V6.78271H4.14648Z" fill="#D80027"/>
<path d="M9.63849 10.9566H8.07333V9.91309H9.11682V8.86961H8.07333V7.82617H7.02985V8.86961H5.98641V9.91309H7.02985V10.9566H5.4646V12.0001H7.02985V13.0435H8.07333V12.0001H9.63849V10.9566Z" fill="#F0F0F0"/>
<path d="M5.83464 15.3567C6.50706 15.7793 7.19791 16.0246 7.55158 16.1337C7.90525 16.0247 8.5961 15.7793 9.26852 15.3567C9.94661 14.9305 10.422 14.4431 10.6919 13.9C10.3942 13.6894 10.0309 13.5652 9.63855 13.5652C9.49567 13.5652 9.35688 13.5821 9.22342 13.6132C8.94063 12.9706 8.29867 12.5217 7.55163 12.5217C6.80458 12.5217 6.16258 12.9706 5.87983 13.6132C5.74638 13.5821 5.60753 13.5652 5.46471 13.5652C5.07231 13.5652 4.70908 13.6894 4.41138 13.9C4.68114 14.443 5.1565 14.9304 5.83464 15.3567Z" fill="#0052B4"/>
</g>
<defs>
<clipPath id="clip0_181_3528">
<rect width="24" height="24" fill="white"/>
</clipPath>
</defs>
</svg>
