<svg width="24" height="24" viewBox="0 0 24 24" fill="none" xmlns="http://www.w3.org/2000/svg">
<g clip-path="url(#clip0_181_3564)">
<path d="M12 24C18.6272 24 24 18.6267 24 12C24 5.37328 18.6272 0 12 0C5.37281 0 0 5.37328 0 12C0 18.6267 5.37281 24 12 24Z" fill="#D80027"/>
<path fill-rule="evenodd" clip-rule="evenodd" d="M5.42993 12C5.43104 12.5868 5.58429 13.1633 5.87472 13.6732C6.16514 14.1831 6.58282 14.609 7.08697 14.9093C7.59113 15.2096 8.16453 15.374 8.75121 15.3865C9.33789 15.3991 9.91779 15.2593 10.4343 14.9808C9.84676 15.5537 9.10329 15.9406 8.29694 16.0931C7.49059 16.2456 6.65717 16.1569 5.90098 15.8381C5.1448 15.5193 4.49944 14.9845 4.04566 14.3007C3.59189 13.617 3.34985 12.8145 3.34985 11.9939C3.34985 11.1733 3.59189 10.3708 4.04566 9.68706C4.49944 9.00329 5.1448 8.46853 5.90098 8.14972C6.65717 7.8309 7.49059 7.74219 8.29694 7.89468C9.10329 8.04717 9.84676 8.43409 10.4343 9.00702C9.93596 8.7473 9.38283 8.61023 8.82087 8.60718C7.92144 8.60793 7.05909 8.96568 6.42328 9.60185C5.78746 10.238 5.43018 11.1006 5.42993 12V12ZM12.4931 11.16L11.5087 9.80062V11.4806L9.91493 12.0005L11.4988 12.5156V14.1886L12.4856 12.8353L14.0854 13.3551L13.101 11.9958L14.0854 10.6425L12.4931 11.16Z" fill="#F0F0F0"/>
</g>
<defs>
<clipPath id="clip0_181_3564">
<rect width="24" height="24" fill="white"/>
</clipPath>
</defs>
</svg>
