<svg width="24" height="24" viewBox="0 0 24 24" fill="none" xmlns="http://www.w3.org/2000/svg">
<path fill-rule="evenodd" clip-rule="evenodd" d="M24 12C24 18.6274 18.6274 24 12 24C5.37257 24 0 18.6274 0 12C0 5.37257 5.37257 0 12 0C18.6274 0 24 5.37257 24 12Z" fill="#E92B2B"/>
<path d="M5.8743 5.14282L6.45159 6.91963H8.31984L6.80843 8.01779L7.38571 9.79459L5.8743 8.69643L4.36284 9.79459L4.94018 8.01779L3.42871 6.91963H5.29696L5.8743 5.14282Z" fill="#FFE70E"/>
<path d="M10.1601 3.85718L10.3526 4.44946H10.9753L10.4715 4.81552L10.664 5.40775L10.1601 5.0417L9.65633 5.40775L9.84876 4.81552L9.34497 4.44946H9.96768L10.1601 3.85718Z" fill="#FFE70E"/>
<path d="M10.1601 9.85718L10.3526 10.4495H10.9753L10.4715 10.8155L10.664 11.4077L10.1601 11.0417L9.65633 11.4077L9.84876 10.8155L9.34497 10.4495H9.96768L10.1601 9.85718Z" fill="#FFE70E"/>
<path d="M11.8745 5.57153L12.067 6.16382H12.6897L12.1859 6.52987L12.3783 7.1221L11.8745 6.75605L11.3707 7.1221L11.5631 6.52987L11.0593 6.16382H11.682L11.8745 5.57153Z" fill="#FFE70E"/>
<path d="M11.8745 8.14282L12.067 8.73511H12.6897L12.1859 9.10116L12.3783 9.69339L11.8745 9.32734L11.3707 9.69339L11.5631 9.10116L11.0593 8.73511H11.682L11.8745 8.14282Z" fill="#FFE70E"/>
</svg>
