<svg width="24" height="24" viewBox="0 0 24 24" fill="none" xmlns="http://www.w3.org/2000/svg">
<path d="M12 24C18.6274 24 24 18.6274 24 12C24 5.37258 18.6274 0 12 0C5.37258 0 0 5.37258 0 12C0 18.6274 5.37258 24 12 24Z" fill="#D80027"/>
<path d="M13.2385 9.07813C12.9658 10.2125 12.4812 9.99613 12.2434 10.9854C10.8427 10.6486 9.97997 9.23999 10.3168 7.83913C10.6534 6.43836 12.0622 5.57567 13.463 5.91247C12.9873 7.89092 13.4825 8.06361 13.2385 9.07813Z" fill="#F0F0F0"/>
<path d="M9.60371 9.91871C10.5983 10.5286 10.2428 10.9226 11.11 11.4545C10.3569 12.6827 8.75068 13.0678 7.52246 12.3146C6.29429 11.5615 5.90912 9.95522 6.6623 8.72705C8.39696 9.79074 8.71407 9.37322 9.60371 9.91871V9.91871Z" fill="#F0F0F0"/>
<path d="M9.27995 13.6355C10.1673 12.8781 10.4321 13.338 11.206 12.6775C12.1414 13.7733 12.0113 15.4199 10.9155 16.3553C9.81967 17.2907 8.17304 17.1604 7.23779 16.0647C8.78532 14.7436 8.48621 14.3129 9.27995 13.6355Z" fill="#F0F0F0"/>
<path d="M12.7148 15.0919C12.2685 14.0139 12.7877 13.9041 12.3987 12.9641C13.7299 12.4132 15.2558 13.0457 15.8067 14.3769C16.3577 15.7081 15.725 17.2339 14.3938 17.7849C13.6158 15.9048 13.1139 16.0561 12.7148 15.0919Z" fill="#F0F0F0"/>
<path d="M15.1613 12.2753C13.9982 12.3665 14.054 11.8387 13.0399 11.9183C12.9272 10.4821 14.0004 9.22629 15.4367 9.11356C16.8729 9.00111 18.1287 10.0742 18.2413 11.5105C16.2127 11.6696 16.2015 12.1938 15.1613 12.2753Z" fill="#F0F0F0"/>
</svg>
