<svg width="24" height="24" viewBox="0 0 24 24" fill="none" xmlns="http://www.w3.org/2000/svg">
<path fill-rule="evenodd" clip-rule="evenodd" d="M-2.38419e-07 12C-2.38419e-07 18.6274 5.37257 24 12 24C18.6274 24 24 18.6274 24 12C24 5.37257 18.6274 0 12 0C5.37257 0 -2.38419e-07 5.37257 -2.38419e-07 12Z" fill="#E92B2B"/>
<path d="M15.3579 4.87573L15.7511 6.08595H17.0236L15.9941 6.83393L16.3873 8.04415L15.3579 7.29617L14.3284 8.04415L14.7216 6.83393L13.6921 6.08595H14.9646L15.3579 4.87573Z" fill="#FFE70E"/>
<path d="M18.2771 4L18.4082 4.40342H18.8324L18.4892 4.65275L18.6203 5.05613L18.2771 4.8068L17.934 5.05613L18.0651 4.65275L17.7219 4.40342H18.1461L18.2771 4Z" fill="#FFE70E"/>
<path d="M18.2771 8.08667L18.4082 8.49009H18.8324L18.4892 8.73942L18.6203 9.1428L18.2771 8.89347L17.934 9.1428L18.0651 8.73942L17.7219 8.49009H18.1461L18.2771 8.08667Z" fill="#FFE70E"/>
<path d="M19.4446 5.16772L19.5757 5.57114H19.9999L19.6567 5.82047L19.7878 6.22385L19.4446 5.97452L19.1015 6.22385L19.2325 5.82047L18.8894 5.57114H19.3135L19.4446 5.16772Z" fill="#FFE70E"/>
<path d="M19.4446 6.91919L19.5757 7.32261H19.9999L19.6567 7.57193L19.7878 7.97532L19.4446 7.72599L19.1015 7.97532L19.2325 7.57193L18.8894 7.32261H19.3135L19.4446 6.91919Z" fill="#FFE70E"/>
<mask id="mask0_181_3598" style="mask-type:alpha" maskUnits="userSpaceOnUse" x="0" y="0" width="12" height="12">
<rect width="12" height="12" fill="#D9D9D9"/>
</mask>
<g mask="url(#mask0_181_3598)">
<path d="M24 12C24 5.37263 18.6274 0 12 0C5.37262 0 0 5.37263 0 12" fill="#D80027"/>
</g>
<mask id="mask1_181_3598" style="mask-type:alpha" maskUnits="userSpaceOnUse" x="0" y="12" width="12" height="12">
<rect x="12" y="24" width="12" height="12" transform="rotate(180 12 24)" fill="#D9D9D9"/>
</mask>
<g mask="url(#mask1_181_3598)">
<path d="M0 12C0 18.6274 5.37262 24 12 24C18.6274 24 24 18.6274 24 12" fill="#F0F0F0"/>
</g>
<path d="M4.79183 6.45648C4.79183 5.28051 5.61829 4.29814 6.72193 4.0571C6.5523 4.02008 6.37634 4 6.19552 4C4.8388 4 3.73901 5.09979 3.73901 6.45651C3.73901 7.81323 4.8388 8.91302 6.19552 8.91302C6.37628 8.91302 6.55227 8.89293 6.72193 8.85589C5.61829 8.61485 4.79183 7.63247 4.79183 6.45648Z" fill="#F0F0F0"/>
<path d="M7.95012 4.17554L8.12435 4.71169H8.68812L8.23199 5.04309L8.40622 5.57923L7.95012 5.2479L7.49403 5.57923L7.66825 5.04309L7.21216 4.71169H7.77589L7.95012 4.17554Z" fill="#F0F0F0"/>
<path d="M6.58251 5.22827L6.75671 5.76445H7.32047L6.86438 6.09582L7.03861 6.63197L6.58251 6.30063L6.12635 6.63197L6.30061 6.09582L5.84448 5.76445H6.40825L6.58251 5.22827Z" fill="#F0F0F0"/>
<path d="M9.3178 5.22827L9.49206 5.76445H10.0558L9.59967 6.09582L9.77393 6.63197L9.3178 6.30063L8.8617 6.63197L9.03593 6.09582L8.57983 5.76445H9.14357L9.3178 5.22827Z" fill="#F0F0F0"/>
<path d="M8.79143 6.80737L8.96566 7.34355H9.5294L9.0733 7.67492L9.24753 8.21107L8.79143 7.87973L8.33533 8.21107L8.50956 7.67492L8.05347 7.34355H8.61717L8.79143 6.80737Z" fill="#F0F0F0"/>
<path d="M7.10909 6.80737L7.28329 7.34355H7.84709L7.39096 7.67492L7.56522 8.21107L7.10909 7.87973L6.65296 8.21107L6.82719 7.67492L6.37109 7.34355H6.93486L7.10909 6.80737Z" fill="#F0F0F0"/>
</svg>
